<svg xmlns="http://www.w3.org/2000/svg" xml:space="preserve" style="fill-rule:evenodd;clip-rule:evenodd;stroke-linejoin:round;stroke-miterlimit:2" viewBox="0 0 24 24"><path d="M12 1.9c5.574 0 10.1 4.526 10.1 10.1S17.574 22.1 12 22.1 1.9 17.574 1.9 12 6.426 1.9 12 1.9M8.379 13.5l-1.023 1.022a1.501 1.501 0 0 0 2.122 2.121l1.022-1.022v1.446a1.5 1.5 0 0 0 3 0V15.62l1.022 1.022a1.5 1.5 0 0 0 2.121-2.12L15.621 13.5h1.446a1.5 1.5 0 0 0 0-3H15.62l1.022-1.022a1.5 1.5 0 0 0-2.12-2.121L13.5 8.379V6.933a1.501 1.501 0 0 0-3 0V8.38L9.478 7.357a1.501 1.501 0 0 0-2.122 2.12L8.38 10.5H6.933a1.5 1.5 0 0 0 0 3z"/></svg>