<svg xmlns="http://www.w3.org/2000/svg" xml:space="preserve" style="fill-rule:evenodd;clip-rule:evenodd;stroke-linejoin:round;stroke-miterlimit:2" viewBox="0 0 24 24"><path d="M22.1 6.95v10.1a5.053 5.053 0 0 1-5.05 5.05H6.95a5.05 5.05 0 0 1-5.05-5.05V6.95A5.05 5.05 0 0 1 6.95 1.9h10.1a5.05 5.05 0 0 1 5.05 5.05M8.378 13.5l-1.021 1.022a1.501 1.501 0 0 0 2.12 2.121l1.023-1.022v1.445a1.5 1.5 0 1 0 3 0v-1.445l1.022 1.022a1.499 1.499 0 1 0 2.12-2.121l-1.02-1.022h1.444a1.5 1.5 0 0 0 0-3h-1.445l1.022-1.022a1.499 1.499 0 1 0-2.121-2.121L13.5 8.379V6.933a1.5 1.5 0 0 0-3 0V8.38L9.478 7.357a1.501 1.501 0 0 0-2.121 2.121L8.378 10.5H6.933a1.5 1.5 0 0 0 0 3z"/></svg>