<svg xmlns="http://www.w3.org/2000/svg" xml:space="preserve" style="fill-rule:evenodd;clip-rule:evenodd;stroke-linejoin:round;stroke-miterlimit:2" viewBox="0 0 24 24"><path d="M5.887 18.382V4.808c0-.587.476-1.064 1.061-1.064h10.107c.586 0 1.061.477 1.061 1.064V17.01a.5.5 0 0 1-.489.5.3.3 0 0 0-.05.042.7.7 0 0 0-.075.106 1.5 1.5 0 0 0-.162.723c0 .281.058.54.162.723a.6.6 0 0 0 .074.106c.015.015.043.037.051.044a.5.5 0 0 1-.01 1H7.76a1.875 1.875 0 0 1-1.873-1.873m1 0c0 .48.39.873.873.873h8.72a2.7 2.7 0 0 1-.141-.873c0-.318.054-.615.14-.87H7.76a.87.87 0 0 0-.871.87m8.518-11.039a.494.494 0 0 0-.493-.494h-5.82a.493.493 0 0 0-.492.494v2.3c0 .273.22.493.493.493h5.819c.271 0 .493-.22.493-.493z"/></svg>