<svg xmlns="http://www.w3.org/2000/svg" xml:space="preserve" style="fill-rule:evenodd;clip-rule:evenodd;stroke-linecap:round;stroke-linejoin:round;stroke-miterlimit:1.5" viewBox="0 0 24 24"><path d="M6.388 18.382V4.807c0-.31.251-.563.56-.563h10.107c.31 0 .562.253.562.563v12.204H7.76c-.758 0-1.372.615-1.372 1.37m9.017-11.04a.494.494 0 0 0-.493-.493h-5.82a.493.493 0 0 0-.492.494v2.3c0 .272.22.493.493.493h5.819c.271 0 .493-.22.493-.494z"/><path d="M6.888 18.382H5.887V4.807c0-.587.476-1.063 1.061-1.063h10.107c.586 0 1.061.476 1.061 1.063v12.204a.5.5 0 0 1-.5.5H7.76a.87.87 0 0 0-.872.87m0-1.657c.26-.136.556-.214.872-.214h9.357V4.807a.06.06 0 0 0-.062-.063H6.948a.06.06 0 0 0-.06.063z"/><path d="M535.577 78.841h-7.336c-.564 0-1.021-1.605-1.021-3.581 0-1.977.457-3.582 1.021-3.582h7.336c-.319 0-.578 1.605-.578 3.582s.259 3.581.578 3.581" style="fill:none;stroke:#000;stroke-width:1.01px" transform="matrix(1.34361 0 0 .38306 -701.99 -10.447)"/></svg>