<svg xmlns="http://www.w3.org/2000/svg" xml:space="preserve" style="fill-rule:evenodd;clip-rule:evenodd;stroke-linejoin:round;stroke-miterlimit:2" viewBox="0 0 24 24"><path d="M22.1 6.95v10.1a5.053 5.053 0 0 1-5.05 5.05H6.95a5.05 5.05 0 0 1-5.05-5.05V6.95A5.05 5.05 0 0 1 6.95 1.9h10.1a5.05 5.05 0 0 1 5.05 5.05M9.88 12 7.43 14.45a1.501 1.501 0 0 0 2.121 2.12l2.45-2.447 2.448 2.448a1.501 1.501 0 0 0 2.12-2.121L14.123 12l2.448-2.448a1.501 1.501 0 0 0-2.121-2.122L12 9.88 9.551 7.43A1.501 1.501 0 0 0 7.43 9.552z"/></svg>