<svg xmlns="http://www.w3.org/2000/svg" xml:space="preserve" style="fill-rule:evenodd;clip-rule:evenodd;stroke-linejoin:round;stroke-miterlimit:2" viewBox="0 0 24 24"><path d="M16.603 15.468v3.168c0 .946-.767 1.713-1.713 1.713H6.897a1.714 1.714 0 0 1-1.713-1.713V5.364c0-.946.767-1.713 1.713-1.713h7.993c.946 0 1.713.767 1.713 1.713v3.168l-.715-.675a1.62 1.62 0 0 0-2.22 2.355l.18.17h-2.99a1.619 1.619 0 0 0 0 3.237h2.99l-.18.17a1.62 1.62 0 0 0 2.22 2.354zm0-4.944v2.952l-1.71 1.612a.169.169 0 1 1-.23-.245l1.507-1.422a.725.725 0 0 0-.497-1.252h-4.814a.169.169 0 0 1 0-.337h4.814a.725.725 0 0 0 .497-1.253l-1.508-1.422a.169.169 0 1 1 .231-.245z"/><path d="M15.673 12.893H10.86a.894.894 0 0 1 0-1.787h4.814l-1.509-1.422a.894.894 0 0 1 1.227-1.3l3.144 2.964q.02.02.038.039a.894.894 0 0 1 0 1.226l-.038.037-3.144 2.964a.894.894 0 0 1-1.227-1.3z"/></svg>