<svg xmlns="http://www.w3.org/2000/svg" xml:space="preserve" style="fill-rule:evenodd;clip-rule:evenodd;stroke-linejoin:round;stroke-miterlimit:2" viewBox="0 0 24 24"><path d="M18.71 18.636a2.714 2.714 0 0 1-2.714 2.713H8.002a2.714 2.714 0 0 1-2.713-2.713V5.364A2.714 2.714 0 0 1 8.002 2.65h7.994a2.714 2.714 0 0 1 2.713 2.713zm-4.144-5.742-1.508 1.422a.894.894 0 0 0 1.225 1.3l3.145-2.966.038-.037a.894.894 0 0 0-.038-1.264l-3.145-2.964a.894.894 0 0 0-1.225 1.3l1.508 1.422H9.752a.894.894 0 0 0 0 1.787z"/></svg>