<svg xmlns="http://www.w3.org/2000/svg" xml:space="preserve" style="fill-rule:evenodd;clip-rule:evenodd;stroke-linejoin:round;stroke-miterlimit:2" viewBox="0 0 24 24"><path d="M6.306 16.987A10.4 10.4 0 0 1 2.31 12C3.791 8.09 7.573 5.307 12 5.307c1.734 0 3.37.426 4.806 1.18l1.827-1.826.707.707-1.645 1.645A10.4 10.4 0 0 1 21.69 12c-1.48 3.91-5.263 6.694-9.69 6.694-1.734 0-3.368-.427-4.805-1.182L5.368 19.34l-.707-.708zm8.285-6.87-4.475 4.474a3.205 3.205 0 0 0 4.475-4.475m-.707-.708a3.206 3.206 0 0 0-4.475 4.475z"/></svg>