<svg xmlns="http://www.w3.org/2000/svg" xml:space="preserve" style="fill-rule:evenodd;clip-rule:evenodd;stroke-linejoin:round;stroke-miterlimit:2" viewBox="0 0 24 24"><path d="M6.004 16.78A10.4 10.4 0 0 1 2.31 12C3.791 8.09 7.573 5.307 12 5.307c1.6 0 3.114.363 4.467 1.01l1.52-1.519L19.4 6.213l-1.175 1.175A10.4 10.4 0 0 1 21.69 12c-1.48 3.91-5.263 6.694-9.69 6.694-1.493 0-2.912-.317-4.194-.886L6.014 19.6l-1.415-1.414zm7.571-7.57a3.206 3.206 0 0 0-4.365 4.366zm-2.885 5.714a3.205 3.205 0 0 0 4.234-4.235z"/></svg>