<svg xmlns="http://www.w3.org/2000/svg" xml:space="preserve" style="fill-rule:evenodd;clip-rule:evenodd;stroke-linejoin:round;stroke-miterlimit:2" viewBox="0 0 24 24"><path d="M4.683 15.57H2.095V8.43h2.588q.25-.512.567-.981L3.955 5.208l6.184-3.57 1.294 2.24a8.4 8.4 0 0 1 1.133 0l1.293-2.24 6.185 3.57-1.295 2.24q.317.47.567.982h2.588v7.14h-2.588a8 8 0 0 1-.567.98l1.295 2.242-6.185 3.57-1.293-2.24a8.5 8.5 0 0 1-1.133 0l-1.294 2.24-6.184-3.57L5.25 16.55a8 8 0 0 1-.567-.98m7.316-7.404A3.837 3.837 0 0 0 8.164 12 3.837 3.837 0 0 0 12 15.835 3.836 3.836 0 0 0 15.833 12 3.836 3.836 0 0 0 12 8.166"/></svg>