<svg xmlns="http://www.w3.org/2000/svg" xml:space="preserve" style="fill-rule:evenodd;clip-rule:evenodd;stroke-linejoin:round;stroke-miterlimit:2" viewBox="0 0 24 24"><path d="M5.336 14.57H3.095V9.43h2.24c.27-.696.645-1.341 1.108-1.912L5.321 5.573l4.452-2.57 1.121 1.941a7.2 7.2 0 0 1 2.21 0l1.122-1.94 4.452 2.57-1.122 1.943a7.1 7.1 0 0 1 1.107 1.912h2.241v5.141h-2.24a7.1 7.1 0 0 1-1.108 1.913l1.122 1.943-4.452 2.571-1.121-1.94a7.2 7.2 0 0 1-2.21 0l-1.122 1.94-4.452-2.571 1.122-1.943a7.1 7.1 0 0 1-1.107-1.913m6.663-5.404a2.835 2.835 0 0 0 0 5.668A2.836 2.836 0 0 0 14.834 12 2.836 2.836 0 0 0 12 9.166"/></svg>