<svg xmlns="http://www.w3.org/2000/svg" xml:space="preserve" style="fill-rule:evenodd;clip-rule:evenodd;stroke-linejoin:round;stroke-miterlimit:2" viewBox="0 0 24 24"><path d="M5.434 10.735a3.656 3.656 0 0 1 5.073-5.033 3.654 3.654 0 1 1-5.073 5.033m-3.472 5.348a6.75 6.75 0 0 1 3.212-4.28 4.5 4.5 0 0 0 3.744 1.453 4.5 4.5 0 0 0 2.923-1.453l.007.004q.288.165.555.355a6.74 6.74 0 0 1 2.65 3.92 9.1 9.1 0 0 1-3.179 2.163c-1.04.42-2.177.65-3.366.65-2.576 0-4.9-1.08-6.546-2.812m17.545-5.684a5.32 5.32 0 0 1 2.531 3.373 7.11 7.11 0 0 1-6.164 2.146 7.59 7.59 0 0 0-2.967-4.423 5.3 5.3 0 0 1 1.345-1.096 3.55 3.55 0 0 0 3.133 1.124 3.54 3.54 0 0 0 2.122-1.124M16.5 5.146q.186-.024.378-.025a2.88 2.88 0 0 1 0 5.76 2.87 2.87 0 0 1-2.422-1.323A2.882 2.882 0 0 1 16.5 5.146"/></svg>