<svg xmlns="http://www.w3.org/2000/svg" xml:space="preserve" style="fill-rule:evenodd;clip-rule:evenodd;stroke-linejoin:round;stroke-miterlimit:2" viewBox="0 0 24 24"><path d="M12 1.9c5.574 0 10.1 4.526 10.1 10.1 0 5.575-4.526 10.1-10.1 10.1S1.9 17.575 1.9 12 6.426 1.9 12 1.9m.845 12.675q-.014-.824.138-1.144t.785-.845q1.221-1.015 1.595-1.605a2.3 2.3 0 0 0 .372-1.25q0-1.194-1.015-2.092-1.016-.899-2.735-.898-1.633 0-2.638.888-1.004.887-1.083 2.159l1.832.227q.192-.888.704-1.321.51-.434 1.27-.434.789 0 1.254.416t.466.998q0 .42-.263.767-.17.22-1.045.93-.873.71-1.164 1.279-.291.568-.292 1.449l.008.476zm-1.811 2.684h1.995v-1.995h-1.995z"/></svg>