<svg xmlns="http://www.w3.org/2000/svg" xml:space="preserve" style="fill-rule:evenodd;clip-rule:evenodd;stroke-linejoin:round;stroke-miterlimit:2" viewBox="0 0 24 24"><path d="M12 1.9c5.574 0 10.1 4.526 10.1 10.1S17.574 22.1 12 22.1 1.9 17.574 1.9 12 6.426 1.9 12 1.9m1.154 13.838h-2v2h2zm.003-.99c.005-.463.122-.868.305-1.21.216-.407.526-.728.85-.961 1.423-1.02 1.933-3.027 1.202-4.459-.487-.955-1.505-1.736-3.257-1.736-2.207.001-3.89 1.852-4.102 3.366l1.98.278c.108-.766 1.006-1.643 2.123-1.644.764 0 1.262.229 1.475.646.318.623.034 1.479-.585 1.923-1.04.745-1.972 2.018-1.99 3.776z"/></svg>