<svg xmlns="http://www.w3.org/2000/svg" xml:space="preserve" style="fill-rule:evenodd;clip-rule:evenodd;stroke-linejoin:round;stroke-miterlimit:2" viewBox="0 0 24 24"><path d="M13.258 3.764v3.975l1.998-2.122a1.257 1.257 0 0 1 1.829 1.725l-4.17 4.423-.052.053a1.257 1.257 0 0 1-1.724 0q-.028-.026-.055-.053l-4.17-4.423a1.257 1.257 0 0 1 1.829-1.725l2 2.122V3.764a1.257 1.257 0 0 1 2.515 0M22.1 15.088v4.27a2.135 2.135 0 0 1-2.134 2.135H4.036a2.137 2.137 0 0 1-2.137-2.135v-4.27c0-1.177.958-2.133 2.136-2.133h15.931c1.178 0 2.134.956 2.134 2.133"/></svg>