<svg xmlns="http://www.w3.org/2000/svg" xml:space="preserve" style="fill-rule:evenodd;clip-rule:evenodd;stroke-linejoin:round;stroke-miterlimit:2" viewBox="0 0 24 24"><path d="M12.79 15.114h-.502a6.02 6.02 0 0 1-5.087 2.8c-3.326 0-6.028-2.706-6.028-6.043S3.875 5.827 7.2 5.827a6.02 6.02 0 0 1 5.087 2.8h7.827c.289 0 .563.124.753.342l1.963 2.244c.329.376.329.939 0 1.316l-1.963 2.244a1 1 0 0 1-.753.341h-.561a1 1 0 0 1-.796-.393l-.227-.3-.326.363a.997.997 0 0 1-1.441.047l-.53-.518-.396.457a1 1 0 0 1-1.442.072l-.525-.495-.284.374a1 1 0 0 1-.796.393m-7.237-4.993a1.75 1.75 0 1 0 .001 3.502 1.75 1.75 0 0 0-.001-3.502"/></svg>