<svg xmlns="http://www.w3.org/2000/svg" xml:space="preserve" style="fill-rule:evenodd;clip-rule:evenodd;stroke-linejoin:round;stroke-miterlimit:2" viewBox="0 0 24 24"><path d="M12.67 14.601h-.882a5.412 5.412 0 1 1 0-5.202h8.257c.1 0 .196.043.263.119l1.975 2.252a.35.35 0 0 1 0 .46l-1.975 2.253a.35.35 0 0 1-.263.118h-.565a.35.35 0 0 1-.277-.136l-.688-.9-.688.9a.35.35 0 0 1-.277.136h-.51a.35.35 0 0 1-.277-.136l-.688-.9-.687.9a.35.35 0 0 1-.278.136h-.51a.35.35 0 0 1-.277-.136l-.688-.9-.687.9a.35.35 0 0 1-.278.136m-7.8-3.846a1.245 1.245 0 1 0 0 2.49 1.245 1.245 0 0 0 0-2.49"/></svg>