<svg xmlns="http://www.w3.org/2000/svg" xml:space="preserve" style="fill-rule:evenodd;clip-rule:evenodd;stroke-linejoin:round;stroke-miterlimit:2" viewBox="0 0 24 24"><path d="M12 8.569a3.435 3.435 0 0 1 3.435 3.43 3.435 3.435 0 0 1-6.87 0A3.435 3.435 0 0 1 12 8.57m1 13.13a1 1 0 0 1-2 0v-3.636a1 1 0 0 1 2 0zm0-15.762a1 1 0 0 1-2 0V2.3a1 1 0 0 1 2 0zM18.035 13a1 1 0 0 1 0-2H21.7a1 1 0 0 1 0 2zM2.3 13a1 1 0 0 1 0-2h3.664a1 1 0 0 1 0 2zm3.883 6.183a1 1 0 0 1-1.41-1.42l2.204-2.186a1 1 0 0 1 1.409 1.42zm10.84-10.76a1 1 0 0 1-1.409-1.42l2.203-2.186a1 1 0 0 1 1.409 1.42zm2.152 9.29a1 1 0 0 1-1.41 1.42l-2.202-2.187a1 1 0 0 1 1.41-1.42zM8.437 7.054a1 1 0 0 1-1.41 1.42L4.826 6.287a1 1 0 0 1 1.41-1.42z"/></svg>