<svg xmlns="http://www.w3.org/2000/svg" xml:space="preserve" style="fill-rule:evenodd;clip-rule:evenodd;stroke-linecap:round;stroke-linejoin:round;stroke-miterlimit:1.5" viewBox="0 0 24 24"><circle cx="134.306" cy="143.279" r="8.266" transform="matrix(.56787 0 0 .56726 -64.269 -69.277)"/><path d="M194.484 73.112v-3.188" style="fill:none;stroke:#000;stroke-width:.88px" transform="matrix(1.13774 0 0 1.13856 -209.273 -61.564)"/><path d="M194.484 73.112v-3.188" style="fill:none;stroke:#000;stroke-width:.88px" transform="matrix(1.13774 0 0 1.13856 -209.273 -77.292)"/><path d="M194.484 73.112v-3.188" style="fill:none;stroke:#000;stroke-width:.88px" transform="matrix(0 1.12932 -1.14705 0 101.885 -207.635)"/><path d="M194.484 73.112v-3.188" style="fill:none;stroke:#000;stroke-width:.88px" transform="matrix(0 1.12932 -1.14705 0 86.183 -207.635)"/><path d="M194.484 73.112v-3.188" style="fill:none;stroke:#000;stroke-width:.95px" transform="matrix(.8045 .79855 -.68947 .68437 -100.562 -186.882)"/><path d="M194.484 73.112v-3.188" style="fill:none;stroke:#000;stroke-width:.95px" transform="matrix(.8045 .79855 -.68947 .68437 -89.746 -197.619)"/><path d="M194.484 73.112v-3.188" style="fill:none;stroke:#000;stroke-width:.94px" transform="matrix(.8045 -.79855 .68947 .68437 -188.416 123.679)"/><path d="M194.484 73.112v-3.188" style="fill:none;stroke:#000;stroke-width:.94px" transform="matrix(.8045 -.79855 .68947 .68437 -199.13 113.043)"/></svg>