<svg xmlns="http://www.w3.org/2000/svg" xml:space="preserve" style="fill-rule:evenodd;clip-rule:evenodd;stroke-linejoin:round;stroke-miterlimit:2" viewBox="0 0 24 24"><path d="M12 7.31A4.694 4.694 0 0 1 16.694 12a4.694 4.694 0 0 1-9.388 0A4.694 4.694 0 0 1 12 7.31m.5 14.369a.5.5 0 0 1-1 0v-3.63a.5.5 0 0 1 1 0zm0-15.729a.5.5 0 1 1-1 0V2.321a.5.5 0 0 1 1 0zm5.522 6.55a.5.5 0 0 1 0-1h3.657a.5.5 0 0 1 0 1zm-15.7 0a.5.5 0 0 1 0-1h3.656a.5.5 0 0 1 0 1zm3.523 6.314a.5.5 0 0 1-.705-.71l2.198-2.181a.5.5 0 1 1 .705.71zM16.662 8.077a.5.5 0 0 1-.705-.71l2.198-2.181a.501.501 0 0 1 .705.71zm2.146 9.976a.5.5 0 0 1-.704.71l-2.198-2.182a.5.5 0 1 1 .705-.71zM8.094 7.418a.5.5 0 0 1-.704.71L5.19 5.946a.5.5 0 0 1 .705-.71z"/></svg>