<svg xmlns="http://www.w3.org/2000/svg" xml:space="preserve" style="fill-rule:evenodd;clip-rule:evenodd;stroke-linejoin:round;stroke-miterlimit:2" viewBox="0 0 24 24"><path d="M22.578 6.655v10.69c0 .898-.722 1.628-1.622 1.628H3.051c-.9 0-1.632-.73-1.632-1.628V6.655c0-.898.732-1.627 1.632-1.627h17.905c.9 0 1.622.729 1.622 1.627m-2.867-.509-7.713 5.577-7.712-5.577a.997.997 0 0 0-1.392.224 1.006 1.006 0 0 0 .22 1.397l8.298 6a1 1 0 0 0 1.172 0l8.299-6a.997.997 0 0 0 .22-1.397.994.994 0 0 0-1.392-.224"/></svg>