<svg xmlns="http://www.w3.org/2000/svg" xml:space="preserve" style="fill-rule:evenodd;clip-rule:evenodd;stroke-linejoin:round;stroke-miterlimit:2" viewBox="0 0 24 24"><path d="M20.88 10.089h-3.32c-.38 0-.7-.314-.7-.702V7.982a.7.7 0 0 0-.7-.702H7.83a.7.7 0 0 0-.7.702v1.405c0 .388-.31.702-.7.702H3.11a.944.944 0 0 1-.94-.936V7.28c0-1.55 1.26-2.809 2.82-2.809h14.02c1.55 0 2.81 1.259 2.81 2.809v1.873c0 .517-.42.936-.94.936M15 9.15h.13c.22 0 .43.096.57.263l3.55 4.18a.76.76 0 0 1 .17.481v4.71c0 .411-.33.744-.74.744H5.32a.743.743 0 0 1-.75-.744v-4.71c0-.176.06-.347.18-.481l3.54-4.18a.74.74 0 0 1 .57-.263h.13v-.5c0-.292.24-.53.53-.53h1.52c.29 0 .53.238.53.53v.5h.85v-.5c0-.292.24-.53.53-.53h1.52c.29 0 .53.238.53.53zm-3 1.511c-2.07 0-3.75 1.68-3.75 3.749a3.751 3.751 0 0 0 7.5 0A3.75 3.75 0 0 0 12 10.661m0 1.488c1.24 0 2.26 1.013 2.26 2.261A2.26 2.26 0 1 1 12 12.149"/></svg>