<svg xmlns="http://www.w3.org/2000/svg" xml:space="preserve" style="fill-rule:evenodd;clip-rule:evenodd;stroke-linejoin:round;stroke-miterlimit:2" viewBox="0 0 24 24"><path d="M21.633 7.423v2.84a1.42 1.42 0 0 1-1.419 1.419H3.788a1.42 1.42 0 0 1-1.42-1.419v-2.84a1.42 1.42 0 0 1 1.42-1.419h16.426c.784 0 1.42.636 1.42 1.42m-16.778.52a.9.9 0 1 0 .002 1.802.9.9 0 0 0-.002-1.802m8.046.622a.28.28 0 0 0-.278-.277h-6.09a.28.28 0 0 0-.278.277v.556c0 .154.124.278.278.278h6.09a.28.28 0 0 0 .278-.278zm7.145 0a.28.28 0 0 0-.278-.277h-6.09a.28.28 0 0 0-.278.277v.556c0 .154.125.278.278.278h6.09a.28.28 0 0 0 .278-.278zM21.633 13.736v2.84a1.42 1.42 0 0 1-1.419 1.419H3.788a1.42 1.42 0 0 1-1.42-1.419v-2.84a1.42 1.42 0 0 1 1.42-1.419h16.426c.784 0 1.42.636 1.42 1.42m-8.732 1.142a.28.28 0 0 0-.278-.277h-6.09a.28.28 0 0 0-.278.277v.556c0 .154.124.278.278.278h6.09a.28.28 0 0 0 .278-.278zm-8.046-.622a.9.9 0 1 0 .002 1.801.9.9 0 0 0-.002-1.8m15.191.622a.28.28 0 0 0-.278-.277h-6.09a.28.28 0 0 0-.278.277v.556c0 .154.125.278.278.278h6.09a.28.28 0 0 0 .278-.278z"/></svg>