<svg xmlns="http://www.w3.org/2000/svg" xml:space="preserve" style="fill-rule:evenodd;clip-rule:evenodd;stroke-linejoin:round;stroke-miterlimit:2" viewBox="0 0 24 24"><path d="M21.837 4.913V9.31a2.2 2.2 0 0 1-2.199 2.198H4.358A2.2 2.2 0 0 1 2.16 9.31V4.913a2.2 2.2 0 0 1 2.2-2.198h15.28a2.2 2.2 0 0 1 2.198 2.198m-15 .556a1.643 1.643 0 1 0 0 3.287 1.643 1.643 0 0 0 0-3.287m12.136 1.143a.5.5 0 0 0-.5-.5h-8.1a.5.5 0 0 0-.5.5v1a.5.5 0 0 0 .5.5h8.1a.5.5 0 0 0 .5-.5zm2.864 8.077v4.396a2.2 2.2 0 0 1-2.199 2.2H4.358a2.2 2.2 0 0 1-2.199-2.2V14.69a2.2 2.2 0 0 1 2.2-2.2h15.28a2.2 2.2 0 0 1 2.198 2.2m-2.864 1.7a.5.5 0 0 0-.5-.503h-8.1c-.276 0-.5.226-.5.502v1a.5.5 0 0 0 .5.5h8.1a.5.5 0 0 0 .5-.5zM6.837 15.244a1.643 1.643 0 1 0 0 3.287 1.643 1.643 0 0 0 0-3.287"/></svg>