<svg xmlns="http://www.w3.org/2000/svg" xml:space="preserve" style="fill-rule:evenodd;clip-rule:evenodd;stroke-linejoin:round;stroke-miterlimit:2" viewBox="0 0 24 24"><path d="M6.465 20.448A10.1 10.1 0 0 1 1.9 12c0-3.04 1.346-5.769 3.475-7.621A10.06 10.06 0 0 1 12 1.9c2.534 0 4.85.935 6.625 2.479a10.095 10.095 0 0 1-1.09 16.069A10.05 10.05 0 0 1 12 22.1c-2.043 0-3.945-.608-5.535-1.652m8.705-8.768a4.28 4.28 0 0 1-3.17 1.4 4.28 4.28 0 0 1-3.17-1.4 6.42 6.42 0 0 0-3.054 4.07A8.56 8.56 0 0 0 12 18.422a8.56 8.56 0 0 0 6.224-2.674 6.42 6.42 0 0 0-3.054-4.069m-5.563-.377A3.46 3.46 0 0 0 12 12.26c.928 0 1.77-.363 2.393-.957a3.46 3.46 0 0 0 1.081-2.517A3.476 3.476 0 0 0 12 5.312a3.476 3.476 0 0 0-3.474 3.474c0 .99.415 1.884 1.08 2.517"/></svg>