<svg xmlns="http://www.w3.org/2000/svg" xml:space="preserve" style="fill-rule:evenodd;clip-rule:evenodd;stroke-linejoin:round;stroke-miterlimit:2" viewBox="0 0 24 24"><path d="M16.677 12.15a9.47 9.47 0 0 1 4.506 6.005A12.63 12.63 0 0 1 12 22.1a12.63 12.63 0 0 1-9.182-3.945 9.47 9.47 0 0 1 4.506-6.004A6.31 6.31 0 0 0 12 14.215a6.32 6.32 0 0 0 4.677-2.064M8.468 10.74a5.11 5.11 0 0 1-1.594-3.714A5.13 5.13 0 0 1 12 1.9a5.13 5.13 0 0 1 5.125 5.125 5.1 5.1 0 0 1-1.594 3.714A5.092 5.092 0 0 1 12 12.15a5.1 5.1 0 0 1-3.531-1.412"/></svg>