<svg xmlns="http://www.w3.org/2000/svg" xml:space="preserve" style="fill-rule:evenodd;clip-rule:evenodd;stroke-linejoin:round;stroke-miterlimit:2" viewBox="0 0 24 24"><path d="M12 1.9c5.574 0 10.1 4.526 10.1 10.1S17.574 22.1 12 22.1 1.9 17.574 1.9 12 6.426 1.9 12 1.9m3.188 10.203A4.3 4.3 0 0 1 12 13.51a4.3 4.3 0 0 1-3.188-1.407 6.45 6.45 0 0 0-3.072 4.093 8.6 8.6 0 0 0 6.26 2.69 8.6 8.6 0 0 0 6.26-2.69 6.45 6.45 0 0 0-3.072-4.093m-5.596-.963a3.48 3.48 0 0 0 2.408.963 3.48 3.48 0 0 0 2.407-.963 3.49 3.49 0 0 0 1.087-2.531A3.496 3.496 0 0 0 12 5.115a3.496 3.496 0 0 0-2.408 6.025"/></svg>