<svg xmlns="http://www.w3.org/2000/svg" xml:space="preserve" style="fill-rule:evenodd;clip-rule:evenodd;stroke-linejoin:round;stroke-miterlimit:2" viewBox="0 0 24 24"><path d="M16.892 11.71a9.9 9.9 0 0 1 4.713 6.28A13.21 13.21 0 0 1 12 22.116c-3.778 0-7.19-1.585-9.604-4.126a9.9 9.9 0 0 1 4.713-6.28 6.6 6.6 0 0 0 4.89 2.159c1.938 0 3.68-.832 4.893-2.159m-8.586-.581a5.35 5.35 0 0 1-1.667-3.884 5.363 5.363 0 0 1 5.36-5.361 5.363 5.363 0 0 1 5.362 5.361c0 1.528-.64 2.907-1.667 3.884A5.34 5.34 0 0 1 12 12.606a5.34 5.34 0 0 1-3.694-1.477"/></svg>