<svg xmlns="http://www.w3.org/2000/svg" xml:space="preserve" style="fill-rule:evenodd;clip-rule:evenodd;stroke-linejoin:round;stroke-miterlimit:2" viewBox="0 0 24 24"><path d="M4.508 19.639a4.13 4.13 0 0 1-3.374-4.057v-8.25A4.125 4.125 0 0 1 5.258 3.21h13.486a4.126 4.126 0 0 1 4.125 4.124v8.25a4.13 4.13 0 0 1-3.375 4.056v.61c0 .3-.243.543-.543.543h-2.51a.543.543 0 0 1-.542-.542v-.543H8.103v.543c0 .3-.242.542-.541.542H5.05a.543.543 0 0 1-.542-.542zm5.571-10.58a4.55 4.55 0 0 0-.646 2.34c0 .92.274 1.778.744 2.498l-1.168 1.155a.5.5 0 0 0 0 .715l.723.715c.2.197.525.197.724 0l1.182-1.168c.713.438 1.554.69 2.453.69.864 0 1.674-.233 2.368-.638l1.164 1.15a.564.564 0 0 0 .792 0l.793-.784a.55.55 0 0 0 0-.783l-1.15-1.137a4.53 4.53 0 0 0 .692-2.413c0-.89-.257-1.72-.699-2.426l1.122-1.11a.5.5 0 0 0 0-.715l-.724-.715a.515.515 0 0 0-.722 0l-1.11 1.097a4.67 4.67 0 0 0-2.526-.736c-.895 0-1.73.25-2.441.683l-1.09-1.078a.566.566 0 0 0-.793 0l-.792.784a.55.55 0 0 0 0 .783zm4.012-.049c1.334 0 2.417 1.071 2.417 2.39 0 1.318-1.083 2.388-2.417 2.388s-2.416-1.07-2.416-2.389S12.757 9.01 14.09 9.01m0 1.328c-.625 0-1.132.502-1.132 1.12 0 .617.507 1.119 1.132 1.119s1.133-.502 1.133-1.12c0-.617-.508-1.119-1.133-1.119M3.08 12.431v3.555h.713c.394 0 .714-.32.714-.713v-2.128a.714.714 0 0 0-.714-.714zm0-5.502v3.555h.713c.394 0 .714-.32.714-.713V7.642a.714.714 0 0 0-.714-.713z"/></svg>