<svg xmlns="http://www.w3.org/2000/svg" xml:space="preserve" style="fill-rule:evenodd;clip-rule:evenodd;stroke-linejoin:round;stroke-miterlimit:2" viewBox="0 0 24 24"><path d="M22.1 6.95v10.1a5.053 5.053 0 0 1-5.05 5.05H6.95a5.05 5.05 0 0 1-5.05-5.05V6.95A5.053 5.053 0 0 1 6.95 1.9h10.1a5.05 5.05 0 0 1 5.05 5.05m-2 0a3.053 3.053 0 0 0-3.05-3.05H6.95A3.05 3.05 0 0 0 3.9 6.95v10.1a3.05 3.05 0 0 0 3.05 3.05h10.1a3.053 3.053 0 0 0 3.05-3.05zM8.38 13.5H6.934a1.5 1.5 0 0 1 0-3h1.445L7.357 9.477a1.5 1.5 0 0 1 2.121-2.12L10.5 8.377V6.932a1.5 1.5 0 0 1 3 0v1.446l1.023-1.022a1.5 1.5 0 0 1 2.12 2.121L15.623 10.5h1.445a1.5 1.5 0 0 1 0 3h-1.445l1.022 1.022a1.5 1.5 0 0 1-2.121 2.121L13.5 15.621v1.445a1.5 1.5 0 1 1-3 0V15.62l-1.022 1.022a1.5 1.5 0 0 1-2.121-2.121z"/></svg>