<svg xmlns="http://www.w3.org/2000/svg" xml:space="preserve" style="fill-rule:evenodd;clip-rule:evenodd;stroke-linejoin:round;stroke-miterlimit:2" viewBox="0 0 24 24"><path d="M8.38 13.5H5.341a1.5 1.5 0 0 1 0-3h3.037L6.231 8.352A1.501 1.501 0 0 1 8.353 6.23L10.5 8.378V5.34a1.5 1.5 0 0 1 3 0V8.38l2.148-2.147a1.5 1.5 0 0 1 2.12 2.12L15.623 10.5h3.037a1.5 1.5 0 0 1 0 3h-3.037l2.148 2.148a1.501 1.501 0 0 1-2.121 2.121L13.5 15.621v3.037a1.5 1.5 0 1 1-3 0V15.62L8.353 17.77a1.5 1.5 0 0 1-2.122-2.121z"/></svg>