<svg xmlns="http://www.w3.org/2000/svg" xml:space="preserve" style="fill-rule:evenodd;clip-rule:evenodd;stroke-linejoin:round;stroke-miterlimit:2" viewBox="0 0 24 24"><path d="M12 1.9c5.574 0 10.1 4.526 10.1 10.1S17.574 22.1 12 22.1 1.9 17.574 1.9 12 6.426 1.9 12 1.9m0 2c-4.47 0-8.1 3.63-8.1 8.1s3.63 8.1 8.1 8.1 8.1-3.63 8.1-8.1-3.63-8.1-8.1-8.1m-3.621 9.6H6.933a1.5 1.5 0 0 1 0-3H8.38L7.356 9.478a1.501 1.501 0 0 1 2.122-2.121L10.5 8.379V6.933a1.5 1.5 0 0 1 3 0V8.38l1.022-1.022a1.5 1.5 0 0 1 2.121 2.12L15.621 10.5h1.446a1.5 1.5 0 0 1 0 3H15.62l1.022 1.022a1.5 1.5 0 0 1-2.12 2.121L13.5 15.621v1.446a1.5 1.5 0 0 1-3 0V15.62l-1.022 1.022a1.501 1.501 0 0 1-2.122-2.12z"/></svg>