<svg xmlns="http://www.w3.org/2000/svg" xml:space="preserve" style="fill-rule:evenodd;clip-rule:evenodd;stroke-linejoin:round;stroke-miterlimit:2" viewBox="0 0 24 24"><path d="M6.625 17.468H4.318l2.32-2.675V8.997h.004A5.365 5.365 0 0 1 12 3.861a5.37 5.37 0 0 1 4.946 3.286l1.687-1.687.707.708-2.068 2.067q.07.373.086.762h.005v5.796l2.32 2.675H8.038l-2.671 2.671-.707-.707zm9.541-9.541a4.364 4.364 0 0 0-8.529 1.167v5.7c0 .24-.086.473-.244.654l-.884 1.02h1.116zm-7.126 8.54h8.451l-.884-1.019a1 1 0 0 1-.244-.655V9.144zm5.033 1.6a2.074 2.074 0 0 1-4.145 0z"/></svg>