<svg xmlns="http://www.w3.org/2000/svg" xml:space="preserve" style="fill-rule:evenodd;clip-rule:evenodd;stroke-linejoin:round;stroke-miterlimit:2" viewBox="0 0 24 24"><path d="m9.199 17.086-3.478 3.478-1.414-1.415 2.063-2.063H4.318l2.32-2.675V8.615h.004A5.365 5.365 0 0 1 12 3.48a5.37 5.37 0 0 1 4.867 3.11l2.108-2.108 1.414 1.415-3.026 3.026v5.49l2.32 2.674zm6.095-8.924a3.363 3.363 0 0 0-6.654.536l-.002.054v5.66q0 .235-.054.46zM11.2 15.086h4.28a2 2 0 0 1-.116-.675v-3.49zm3.183 3.31a2.383 2.383 0 0 1-4.764 0z"/></svg>