<svg xmlns="http://www.w3.org/2000/svg" xml:space="preserve" style="fill-rule:evenodd;clip-rule:evenodd;stroke-linejoin:round;stroke-miterlimit:2" viewBox="0 0 24 24"><path d="M17.363 8.615v5.796l2.32 2.675H4.317l2.32-2.675V8.615h.004A5.365 5.365 0 0 1 12 3.48a5.365 5.365 0 0 1 5.358 5.136zm-2 .137-.003-.054a3.363 3.363 0 0 0-6.72 0l-.002.054v5.66c0 .23-.04.46-.118.674h6.96a2 2 0 0 1-.117-.675zm-.98 9.644a2.383 2.383 0 0 1-4.765 0zM4.486 6.715a8.02 8.02 0 0 1 4.82-4.81v1.301a6.8 6.8 0 0 0-3.518 3.509zm13.725 0a6.8 6.8 0 0 0-3.518-3.509v-1.3a8.02 8.02 0 0 1 4.82 4.809z"/></svg>