<svg xmlns="http://www.w3.org/2000/svg" xml:space="preserve" style="fill-rule:evenodd;clip-rule:evenodd;stroke-linejoin:round;stroke-miterlimit:2" viewBox="0 0 24 24"><path d="M5.887 18.382V4.808c0-.587.476-1.064 1.061-1.064h10.107c.586 0 1.061.477 1.061 1.064V17.01a.5.5 0 0 1-.489.5.3.3 0 0 0-.05.042.7.7 0 0 0-.075.106 1.5 1.5 0 0 0-.162.723c0 .281.058.54.162.723a.6.6 0 0 0 .074.106c.015.015.043.037.051.044a.5.5 0 0 1-.01 1H7.76a1.875 1.875 0 0 1-1.873-1.873m11.23-1.87V4.807a.06.06 0 0 0-.062-.063H6.948a.06.06 0 0 0-.06.063v11.917c.26-.136.556-.214.872-.214zm-10.23 1.87c0 .48.39.873.873.873h8.72a2.7 2.7 0 0 1-.141-.873c0-.318.054-.615.14-.87H7.76a.87.87 0 0 0-.871.87m9.018-11.039v2.3a.994.994 0 0 1-.993.994h-5.82a.994.994 0 0 1-.992-.994v-2.3c0-.548.445-.992.993-.992h5.819c.548 0 .993.444.993.992m-6.806.007v2.286h5.806V7.35z"/></svg>