<svg xmlns="http://www.w3.org/2000/svg" xml:space="preserve" style="fill-rule:evenodd;clip-rule:evenodd;stroke-linejoin:round;stroke-miterlimit:2" viewBox="0 0 24 24"><path d="M4.48 19.414V3.17c0-.913.739-1.652 1.65-1.652h11.737c.912 0 1.652.74 1.652 1.652v14.172c0 .437-.283.81-.674.945-.064.186-.23.712-.23 1.127 0 .412.166.937.23 1.124a1 1 0 0 1-.326 1.946H7.073c-1.353 0-2.594-1.313-2.594-3.07m13.039-3.073V3.517H6.479v12.91q.29-.085.594-.086zm-.793 4.144a5.3 5.3 0 0 1 0-2.145H7.073c-.14 0-.219.156-.31.284-.168.236-.283.533-.283.79 0 .331.09.636.259.854.089.116.196.217.334.217zm-.477-13.37v2.67c0 .868-.704 1.572-1.572 1.572H9.321a1.573 1.573 0 0 1-1.573-1.572v-2.67c0-.867.705-1.574 1.573-1.574h5.356c.868 0 1.572.707 1.572 1.574m-6.5.428v1.815h4.5V7.543z"/></svg>