<svg xmlns="http://www.w3.org/2000/svg" xml:space="preserve" style="fill-rule:evenodd;clip-rule:evenodd;stroke-linejoin:round;stroke-miterlimit:2" viewBox="0 0 24 24"><path d="M22.1 6.95v10.1a5.053 5.053 0 0 1-5.05 5.05H6.95a5.05 5.05 0 0 1-5.05-5.05V6.95A5.05 5.05 0 0 1 6.95 1.9h10.1a5.05 5.05 0 0 1 5.05 5.05m-2 0a3.05 3.05 0 0 0-3.05-3.05H6.95A3.05 3.05 0 0 0 3.9 6.95v10.1a3.05 3.05 0 0 0 3.05 3.05h10.1a3.05 3.05 0 0 0 3.05-3.05zm-8.032-.818A5.87 5.87 0 0 1 17.935 12a5.87 5.87 0 0 1-5.867 5.868A5.87 5.87 0 0 1 6.2 12a5.87 5.87 0 0 1 5.868-5.868"/></svg>