<svg xmlns="http://www.w3.org/2000/svg" xml:space="preserve" style="fill-rule:evenodd;clip-rule:evenodd;stroke-linejoin:round;stroke-miterlimit:2" viewBox="0 0 24 24"><path d="M22.1 6.95v10.1a5.05 5.05 0 0 1-5.05 5.05H6.95a5.05 5.05 0 0 1-5.05-5.05V6.95A5.05 5.05 0 0 1 6.95 1.9h10.1a5.05 5.05 0 0 1 5.05 5.05m-2 0a3.05 3.05 0 0 0-3.05-3.05H6.95A3.05 3.05 0 0 0 3.9 6.95v10.1a3.05 3.05 0 0 0 3.05 3.05h10.1a3.05 3.05 0 0 0 3.05-3.05zM6.495 13.505a1.5 1.5 0 0 1 2.215-2.024l1.948 2.132 3.61-5.432a1.5 1.5 0 0 1 2.5 1.661l-4.674 7.03a1.5 1.5 0 0 1-2.357.181z"/></svg>