<svg xmlns="http://www.w3.org/2000/svg" xml:space="preserve" style="fill-rule:evenodd;clip-rule:evenodd;stroke-linejoin:round;stroke-miterlimit:2" viewBox="0 0 24 24"><path d="M22.1 6.95v10.1a5.05 5.05 0 0 1-5.05 5.05H6.95a5.05 5.05 0 0 1-5.05-5.05V6.95A5.05 5.05 0 0 1 6.95 1.9h10.1a5.05 5.05 0 0 1 5.05 5.05m-2 0a3.05 3.05 0 0 0-3.05-3.05H6.95A3.05 3.05 0 0 0 3.9 6.95v10.1a3.05 3.05 0 0 0 3.05 3.05h10.1a3.05 3.05 0 0 0 3.05-3.05zM9.88 12 7.43 9.552A1.5 1.5 0 0 1 9.552 7.43L12 9.879l2.45-2.448a1.5 1.5 0 0 1 2.12 2.12L14.122 12l2.448 2.449a1.5 1.5 0 0 1-2.12 2.12L12 14.122 9.552 16.57a1.5 1.5 0 0 1-2.121-2.121z"/></svg>