<svg xmlns="http://www.w3.org/2000/svg" xml:space="preserve" style="fill-rule:evenodd;clip-rule:evenodd;stroke-linejoin:round;stroke-miterlimit:2" viewBox="0 0 24 24"><path d="M12 1.9c5.575 0 10.1 4.525 10.1 10.1S17.576 22.1 12 22.1 1.9 17.574 1.9 12C1.9 6.425 6.427 1.9 12 1.9m0 2c-4.47 0-8.1 3.63-8.1 8.1s3.63 8.1 8.1 8.1c4.471 0 8.1-3.63 8.1-8.1S16.472 3.9 12 3.9M9.88 12 7.43 9.552A1.5 1.5 0 0 1 9.552 7.43L12 9.879l2.45-2.448a1.5 1.5 0 0 1 2.12 2.12L14.122 12l2.448 2.449a1.5 1.5 0 0 1-2.12 2.12L12 14.122 9.552 16.57a1.5 1.5 0 0 1-2.121-2.121z"/></svg>