<svg xmlns="http://www.w3.org/2000/svg" xml:space="preserve" style="fill-rule:evenodd;clip-rule:evenodd;stroke-linejoin:round;stroke-miterlimit:2" viewBox="0 0 24 24"><path d="M20.93 11.341q.025.327.025.659c0 4.942-4.013 8.955-8.955 8.955S3.045 16.942 3.045 12 7.057 3.045 12 3.045q.297 0 .59.02a5.87 5.87 0 0 0-1.973 4.395 5.89 5.89 0 0 0 5.888 5.888 5.88 5.88 0 0 0 4.426-2.007m-1.117 2.16a6.891 6.891 0 0 1-9.376-9.303C6.794 4.927 4.045 8.146 4.045 12A7.96 7.96 0 0 0 12 19.955c3.877 0 7.11-2.78 7.813-6.453"/></svg>