<svg xmlns="http://www.w3.org/2000/svg" xml:space="preserve" style="fill-rule:evenodd;clip-rule:evenodd;stroke-linejoin:round;stroke-miterlimit:2" viewBox="0 0 24 24"><path d="M4.399 13.58 2.221 9.959a1.5 1.5 0 0 1 2.571-1.546l.134.223A7.84 7.84 0 0 1 12 4.168a7.81 7.81 0 0 1 5.971 2.765 1.5 1.5 0 0 1-2.286 1.942 4.835 4.835 0 0 0-8.021.991l.869-.522a1.5 1.5 0 0 1 1.546 2.571l-3.621 2.177a1.5 1.5 0 0 1-2.059-.512m14.612-3.716c.237.123.443.311.591.556l2.177 3.621a1.501 1.501 0 0 1-2.571 1.546l-.134-.223A7.84 7.84 0 0 1 12 19.832a7.82 7.82 0 0 1-5.971-2.765 1.501 1.501 0 0 1 2.287-1.942 4.834 4.834 0 0 0 8.02-.991l-.868.522a1.5 1.5 0 1 1-1.546-2.57l3.621-2.178a1.5 1.5 0 0 1 1.468-.044"/></svg>