<?xml version="1.0" encoding="UTF-8" standalone="no"?>
<!DOCTYPE svg PUBLIC "-//W3C//DTD SVG 1.1//EN" "http://www.w3.org/Graphics/SVG/1.1/DTD/svg11.dtd">
<svg width="100%" height="100%" viewBox="0 0 24 24" version="1.1" xmlns="http://www.w3.org/2000/svg" xmlns:xlink="http://www.w3.org/1999/xlink" xml:space="preserve" xmlns:serif="http://www.serif.com/" style="fill-rule:evenodd;clip-rule:evenodd;stroke-linejoin:round;stroke-miterlimit:2;">
    <g transform="matrix(-0.731393,-6.16298e-33,0,1.04425,142.014,-131.912)">
        <path d="M166.804,146.352L188.721,146.352C189.238,146.352 189.71,146.149 189.942,145.826C190.175,145.503 190.128,145.116 189.821,144.825L182.366,137.76L182.366,131.19L183.242,131.19C183.997,131.19 184.609,130.761 184.609,130.233C184.609,129.704 183.997,129.275 183.242,129.275L172.283,129.275C171.529,129.275 170.916,129.704 170.916,130.233C170.916,130.761 171.529,131.19 172.283,131.19L173.159,131.19L173.159,137.76L165.705,144.826C165.53,144.991 165.437,145.189 165.437,145.395C165.437,145.699 165.642,145.984 165.992,146.165C166.227,146.287 166.511,146.352 166.804,146.352ZM179.899,138.645C179.899,138.645 181.567,140.225 183.16,141.735L172.365,141.735L175.626,138.645C175.8,138.479 175.894,138.281 175.894,138.075C175.894,138.075 175.894,131.19 175.894,131.19L179.632,131.19L179.632,138.075C179.632,138.281 179.725,138.479 179.899,138.645Z"/>
    </g>
</svg>
