<svg xmlns="http://www.w3.org/2000/svg" xml:space="preserve" style="fill-rule:evenodd;clip-rule:evenodd;stroke-linejoin:round;stroke-miterlimit:2" viewBox="0 0 24 24"><path d="M16.353 15.859a.5.5 0 0 1 1 0v2.777a2.214 2.214 0 0 1-2.213 2.213H7.146a2.214 2.214 0 0 1-2.212-2.213V5.364c0-1.222.991-2.213 2.212-2.213h7.994c1.222 0 2.213.991 2.213 2.213V8.14a.5.5 0 1 1-1 0V5.364c0-.67-.543-1.213-1.213-1.213H7.146c-.669 0-1.212.543-1.212 1.213v13.272c0 .67.543 1.213 1.212 1.213h7.994c.67 0 1.213-.544 1.213-1.213zm-.43-2.965h-4.814a.894.894 0 0 1 0-1.787h4.814l-1.509-1.423a.894.894 0 0 1 1.227-1.3l3.144 2.965.038.038a.894.894 0 0 1 0 1.226l-.038.037-3.144 2.966a.894.894 0 0 1-1.227-1.3z"/></svg>