<svg xmlns="http://www.w3.org/2000/svg" xml:space="preserve" style="fill-rule:evenodd;clip-rule:evenodd;stroke-linejoin:round;stroke-miterlimit:2" viewBox="0 0 24 24"><path d="M16.71 15.859h2v2.777a2.714 2.714 0 0 1-2.714 2.713H8.002a2.714 2.714 0 0 1-2.713-2.713V5.364A2.714 2.714 0 0 1 8.002 2.65h7.994a2.714 2.714 0 0 1 2.713 2.713V8.14h-2V5.364a.713.713 0 0 0-.713-.713H8.002a.713.713 0 0 0-.713.713v13.272c0 .394.32.713.713.713h7.994c.394 0 .713-.32.713-.713zm-2.144-2.965H9.752a.894.894 0 0 1 0-1.787h4.814l-1.508-1.423a.894.894 0 0 1 1.225-1.3l3.145 2.965.038.038a.894.894 0 0 1 0 1.226l-.038.037-3.145 2.966a.894.894 0 0 1-1.225-1.3z"/></svg>