<svg xmlns="http://www.w3.org/2000/svg" xml:space="preserve" style="fill-rule:evenodd;clip-rule:evenodd;stroke-linejoin:round;stroke-miterlimit:2" viewBox="0 0 24 24"><path d="M13.258 10.904a1.257 1.257 0 0 1-2.514 0V6.928L8.743 9.05a1.257 1.257 0 0 1-1.828-1.725l4.17-4.423.054-.053a1.257 1.257 0 0 1 1.724 0l.052.053 4.17 4.423a1.257 1.257 0 0 1-1.829 1.725l-1.998-2.122zm8.842 4.185v4.27a2.134 2.134 0 0 1-2.134 2.133H4.036a2.136 2.136 0 0 1-2.137-2.133v-4.27c0-1.177.958-2.134 2.136-2.134h15.931c1.178 0 2.134.957 2.134 2.134m-2 0a.135.135 0 0 0-.134-.135H4.036a.135.135 0 0 0-.136.135v4.27c0 .073.06.134.135.134h15.931c.073 0 .133-.06.133-.134z"/></svg>