<svg xmlns="http://www.w3.org/2000/svg" xml:space="preserve" style="fill-rule:evenodd;clip-rule:evenodd;stroke-linejoin:round;stroke-miterlimit:2" viewBox="0 0 24 24"><path d="M5.889 16.697A10.4 10.4 0 0 1 2.31 12C3.791 8.09 7.573 5.307 12 5.307c1.546 0 3.014.339 4.332.947l1.655-1.655L19.4 6.013l-1.29 1.29A10.4 10.4 0 0 1 21.691 12c-1.482 3.91-5.264 6.694-9.69 6.694-1.547 0-3.014-.34-4.332-.948L6.014 19.4l-1.415-1.415zm8.91-8.91A8.365 8.365 0 0 0 4.487 12a8.4 8.4 0 0 0 2.837 3.262l1.082-1.082a4.206 4.206 0 0 1 5.774-5.775zM9.2 16.213A8.363 8.363 0 0 0 19.513 12a8.4 8.4 0 0 0-2.836-3.262L15.594 9.82a4.206 4.206 0 0 1-5.774 5.775zm3.481-6.309a2.205 2.205 0 0 0-2.778 2.778zm-1.364 4.192A2.21 2.21 0 0 0 14.204 12q-.002-.358-.108-.682z"/></svg>