<svg xmlns="http://www.w3.org/2000/svg" xml:space="preserve" style="fill-rule:evenodd;clip-rule:evenodd;stroke-linejoin:round;stroke-miterlimit:2" viewBox="0 0 24 24"><path d="M6.306 16.987A10.4 10.4 0 0 1 2.31 12C3.791 8.09 7.573 5.307 12 5.307c1.734 0 3.37.426 4.806 1.18l1.827-1.826.707.707-1.645 1.645A10.4 10.4 0 0 1 21.69 12c-1.48 3.91-5.263 6.694-9.69 6.694-1.734 0-3.368-.427-4.805-1.182L5.368 19.34l-.707-.708zm9.755-9.755A9.3 9.3 0 0 0 12 6.306c-3.866 0-7.186 2.349-8.613 5.694a9.4 9.4 0 0 0 3.641 4.264l2.023-2.023a3.706 3.706 0 0 1 5.19-5.19zM7.94 16.768a9.3 9.3 0 0 0 4.06.926c3.865 0 7.185-2.348 8.612-5.695a9.4 9.4 0 0 0-3.641-4.263L14.948 9.76c.474.622.756 1.4.756 2.24a3.706 3.706 0 0 1-5.945 2.95zm5.586-7a2.705 2.705 0 0 0-3.758 3.758zm-3.051 4.464a2.705 2.705 0 0 0 3.758-3.758z"/></svg>