<svg xmlns="http://www.w3.org/2000/svg" xml:space="preserve" style="fill-rule:evenodd;clip-rule:evenodd;stroke-linejoin:round;stroke-miterlimit:2" viewBox="0 0 24 24"><path d="M2.31 12C3.791 8.09 7.573 5.307 12 5.307S20.21 8.089 21.69 12c-1.48 3.91-5.263 6.694-9.69 6.694S3.791 15.91 2.31 12m1.078 0c1.427 3.346 4.748 5.694 8.612 5.694 3.865 0 7.185-2.348 8.612-5.695C19.185 8.654 15.865 6.306 12 6.306S4.815 8.655 3.388 12M12 8.296A3.706 3.706 0 0 1 15.704 12 3.706 3.706 0 0 1 12 15.704 3.706 3.706 0 0 1 8.297 12 3.706 3.706 0 0 1 12 8.296m0 1A2.705 2.705 0 0 0 9.296 12a2.705 2.705 0 0 0 5.408 0A2.705 2.705 0 0 0 12 9.296"/></svg>