<svg xmlns="http://www.w3.org/2000/svg" xml:space="preserve" style="fill-rule:evenodd;clip-rule:evenodd;stroke-linejoin:round;stroke-miterlimit:2" viewBox="0 0 24 24"><path d="M2.31 12C3.791 8.09 7.573 5.307 12 5.307S20.21 8.089 21.69 12c-1.48 3.91-5.263 6.694-9.69 6.694S3.791 15.91 2.31 12m2.177 0A8.37 8.37 0 0 0 12 16.694a8.36 8.36 0 0 0 7.513-4.695A8.36 8.36 0 0 0 12 7.306 8.37 8.37 0 0 0 4.487 12M12 7.796A4.206 4.206 0 0 1 16.204 12 4.206 4.206 0 0 1 12 16.204 4.206 4.206 0 0 1 7.797 12 4.206 4.206 0 0 1 12 7.796m0 2A2.205 2.205 0 1 0 14.204 12 2.205 2.205 0 0 0 12 9.796"/></svg>