<svg xmlns="http://www.w3.org/2000/svg" xml:space="preserve" style="fill-rule:evenodd;clip-rule:evenodd;stroke-linejoin:round;stroke-miterlimit:2" viewBox="0 0 24 24"><path d="M4.683 15.57H2.095V8.43h2.588q.25-.512.567-.981L3.955 5.208l6.184-3.57 1.294 2.24a8.4 8.4 0 0 1 1.133 0l1.293-2.24 6.185 3.57-1.295 2.24q.317.47.567.982h2.588v7.14h-2.588a8 8 0 0 1-.567.98l1.295 2.242-6.185 3.57-1.293-2.24a8.5 8.5 0 0 1-1.133 0l-1.294 2.24-6.184-3.57L5.25 16.55a8 8 0 0 1-.567-.98m1.585-1.36c.232.6.556 1.154.952 1.645l.432.534-.966 1.671 2.722 1.57.963-1.668.676.105a6.2 6.2 0 0 0 1.903 0l.678-.105.963 1.668 2.72-1.57-.964-1.671.431-.534a6.1 6.1 0 0 0 .952-1.644l.247-.64h1.927v-3.142h-1.927l-.247-.64a6.1 6.1 0 0 0-.952-1.644l-.43-.534.963-1.67-2.72-1.572-.963 1.668-.678-.105a6.1 6.1 0 0 0-1.903 0l-.676.105-.963-1.668L6.686 5.94l.966 1.671-.432.534a6.2 6.2 0 0 0-.952 1.645l-.247.639H4.095v3.141h1.926zm5.73-6.044A3.836 3.836 0 0 1 15.834 12 3.836 3.836 0 0 1 12 15.835 3.837 3.837 0 0 1 8.164 12 3.837 3.837 0 0 1 12 8.166m0 1.999A1.836 1.836 0 1 0 13.834 12 1.836 1.836 0 0 0 12 10.165"/></svg>