<svg xmlns="http://www.w3.org/2000/svg" xml:space="preserve" style="fill-rule:evenodd;clip-rule:evenodd;stroke-linejoin:round;stroke-miterlimit:2" viewBox="0 0 24 24"><path d="M5.336 14.57H3.095V9.43h2.24c.27-.696.645-1.341 1.108-1.912L5.321 5.573l4.452-2.57 1.121 1.941a7.2 7.2 0 0 1 2.21 0l1.122-1.94 4.452 2.57-1.122 1.943a7.1 7.1 0 0 1 1.107 1.912h2.241v5.141h-2.24a7.1 7.1 0 0 1-1.108 1.913l1.122 1.943-4.452 2.571-1.121-1.94a7.2 7.2 0 0 1-2.21 0l-1.122 1.94-4.452-2.571 1.122-1.943a7.1 7.1 0 0 1-1.107-1.913m.932-.36c.232.6.556 1.154.952 1.645.26.321.296.77.089 1.129l-.623 1.076 2.722 1.57.62-1.074a1 1 0 0 1 1.02-.489 6.2 6.2 0 0 0 1.902 0 1 1 0 0 1 1.02.49l.621 1.073 2.72-1.57-.62-1.076a1 1 0 0 1 .087-1.129 6.1 6.1 0 0 0 .952-1.644c.15-.387.52-.64.933-.64h1.24v-3.142h-1.24c-.414 0-.783-.254-.933-.64a6.1 6.1 0 0 0-.952-1.644 1 1 0 0 1-.088-1.128l.621-1.077-2.72-1.571-.62 1.075a1 1 0 0 1-1.02.488 6.1 6.1 0 0 0-1.904 0 1 1 0 0 1-1.02-.488l-.62-1.075-2.72 1.571.622 1.077a1 1 0 0 1-.09 1.128 6.2 6.2 0 0 0-.951 1.645 1 1 0 0 1-.932.639h-1.24v3.141h1.24a1 1 0 0 1 .932.64m5.73-6.044A3.836 3.836 0 0 1 15.834 12 3.836 3.836 0 0 1 12 15.835 3.837 3.837 0 0 1 8.164 12 3.837 3.837 0 0 1 12 8.166m0 1a2.835 2.835 0 0 0 0 5.668A2.836 2.836 0 0 0 14.835 12 2.836 2.836 0 0 0 12 9.166"/></svg>