<svg xmlns="http://www.w3.org/2000/svg" xml:space="preserve" style="fill-rule:evenodd;clip-rule:evenodd;stroke-linejoin:round;stroke-miterlimit:2" viewBox="0 0 24 24"><path d="M11.527 13.228a7.4 7.4 0 0 1 3.52 4.69A9.87 9.87 0 0 1 7.874 21 9.87 9.87 0 0 1 .7 17.918a7.4 7.4 0 0 1 3.52-4.69 4.93 4.93 0 0 0 3.653 1.612 4.93 4.93 0 0 0 3.653-1.612m.07 2.531a6.9 6.9 0 0 1-3.723 1.082A6.9 6.9 0 0 1 4.15 15.76a5.4 5.4 0 0 0-1.133 1.568A7.86 7.86 0 0 0 7.874 19a7.86 7.86 0 0 0 4.856-1.672 5.4 5.4 0 0 0-1.133-1.569m-6.482-3.634A4.006 4.006 0 0 1 7.874 5.22a4.006 4.006 0 0 1 1.721 7.62 4 4 0 0 1-1.721.388c-1.07 0-2.04-.42-2.76-1.103m1.378-1.45c.36.343.846.553 1.38.553a2 2 0 0 0 1.38-.552c.385-.365.625-.88.625-1.452a2.005 2.005 0 0 0-4.008 0c0 .571.24 1.087.623 1.452m14.085-1.527a5.68 5.68 0 0 1 2.721 3.601 7.66 7.66 0 0 1-5.546 2.366 7.66 7.66 0 0 1-5.546-2.366 5.68 5.68 0 0 1 2.722-3.6 3.83 3.83 0 0 0 2.824 1.238 3.83 3.83 0 0 0 2.825-1.239m-.024 2.525a5.8 5.8 0 0 1-2.8.713 5.8 5.8 0 0 1-2.8-.713 4 4 0 0 0-.36.485 5.66 5.66 0 0 0 3.16.957 5.66 5.66 0 0 0 3.158-.957 4 4 0 0 0-.358-.485M15.62 8.302a3.06 3.06 0 0 1-.963-2.228C14.657 4.377 16.045 3 17.753 3s3.096 1.377 3.096 3.074c0 .876-.37 1.667-.963 2.228a3.1 3.1 0 0 1-2.133.846 3.1 3.1 0 0 1-2.133-.846m1.374-1.455c.198.187.465.301.76.301a1.1 1.1 0 0 0 .759-.3 1.06 1.06 0 0 0 .336-.774c0-.596-.495-1.074-1.096-1.074-.6 0-1.095.478-1.095 1.074 0 .304.13.58.336.773"/></svg>