<svg xmlns="http://www.w3.org/2000/svg" xml:space="preserve" style="fill-rule:evenodd;clip-rule:evenodd;stroke-linejoin:round;stroke-miterlimit:2" viewBox="0 0 24 24"><path d="M1.95 16.085a6.76 6.76 0 0 1 3.216-4.283 4.51 4.51 0 0 0 3.748 1.455 4.5 4.5 0 0 0 2.927-1.455l.007.004q.288.165.556.356a6.75 6.75 0 0 1 2.653 3.923 9.1 9.1 0 0 1-3.183 2.165c-1.041.42-2.18.65-3.37.65a9.02 9.02 0 0 1-6.554-2.815m9.998-3.017q-.286.226-.597.417a5.5 5.5 0 0 1-2.847.79 5.5 5.5 0 0 1-3.445-1.207 5.76 5.76 0 0 0-1.983 2.722 8.02 8.02 0 0 0 5.428 2.11 8 8 0 0 0 3.54-.82l.147-.074a8 8 0 0 0 1.74-1.216 5.76 5.76 0 0 0-1.983-2.722m4.558-7.928q.185-.024.38-.024a2.884 2.884 0 0 1 2.424 4.44 3 3 0 0 1-.438.53 2.88 2.88 0 0 1-1.987.793 2.87 2.87 0 0 1-2.425-1.324 2.885 2.885 0 0 1 2.046-4.415m.13.991A1.884 1.884 0 0 0 15.3 9.013a1.876 1.876 0 0 0 2.882.347l.038-.037q.14-.14.25-.31a1.883 1.883 0 0 0-1.833-2.882m2.88 4.267a5.32 5.32 0 0 1 2.534 3.375 7.12 7.12 0 0 1-6.172 2.147 7.596 7.596 0 0 0-2.971-4.427c.385-.434.84-.806 1.348-1.095a3.56 3.56 0 0 0 3.137 1.124 3.54 3.54 0 0 0 2.124-1.124m-4.395 1.806a8.6 8.6 0 0 1 1.533 2.783q.116.004.231.004.712-.002 1.378-.156a6.1 6.1 0 0 0 2.652-1.358 4.3 4.3 0 0 0-1.316-1.814 4.54 4.54 0 0 1-2.714.895 4.6 4.6 0 0 1-1.764-.354m-9.695-1.47a3.64 3.64 0 0 1-.58-1.977 3.66 3.66 0 0 1 7.316 0 3.64 3.64 0 0 1-1.138 2.649 3.65 3.65 0 0 1-2.52 1.007 3.65 3.65 0 0 1-3.078-1.68m.84-.542q.175.268.406.49a2.65 2.65 0 0 0 1.965.728 2.64 2.64 0 0 0 1.698-.729 2.64 2.64 0 0 0 .826-1.925A2.655 2.655 0 0 0 8.505 6.1a2.659 2.659 0 0 0-2.238 4.092"/></svg>