<svg xmlns="http://www.w3.org/2000/svg" xml:space="preserve" style="fill-rule:evenodd;clip-rule:evenodd;stroke-linejoin:round;stroke-miterlimit:2" viewBox="0 0 24 24"><path d="M12 1.9c5.574 0 10.1 4.525 10.1 10.1S17.574 22.1 12 22.1C6.425 22.1 1.9 17.574 1.9 12 1.9 6.425 6.425 1.9 12 1.9m0 2A8.103 8.103 0 0 0 3.9 12c0 4.47 3.629 8.1 8.1 8.1 4.47 0 8.1-3.63 8.1-8.1 0-4.471-3.63-8.1-8.1-8.1m1.157 10.848-2-.021c.019-1.758.95-3.032 1.99-3.777.62-.443.904-1.299.585-1.923-.212-.416-.711-.645-1.475-.645-1.116 0-2.014.878-2.122 1.644l-1.98-.278c.212-1.515 1.895-3.365 4.102-3.366 1.751-.001 2.769.781 3.257 1.736.731 1.432.221 3.439-1.202 4.458-.599.43-1.144 1.159-1.155 2.172m-.003.99v2h-2v-2z"/><path d="M292.405 508.124h3.937v3.937h-3.937z" style="fill:none" transform="translate(-286.91 -501.483)scale(1.01594)"/></svg>