<svg xmlns="http://www.w3.org/2000/svg" xml:space="preserve" style="fill-rule:evenodd;clip-rule:evenodd;stroke-linejoin:round;stroke-miterlimit:2" viewBox="0 0 24 24"><path d="M12 1.9c5.574 0 10.1 4.526 10.1 10.1 0 5.575-4.526 10.1-10.1 10.1S1.9 17.575 1.9 12 6.426 1.9 12 1.9m0 1c-5.023 0-9.1 4.077-9.1 9.1s4.077 9.1 9.1 9.1 9.1-4.078 9.1-9.1c0-5.023-4.078-9.1-9.1-9.1m-.722 14.77v-2.049h2.05v2.05zm1.86-2.756h-1.86q-.007-.401-.007-.49 0-.903.298-1.487.3-.583 1.197-1.312.896-.73 1.072-.956.27-.357.27-.787 0-.598-.478-1.025-.479-.426-1.287-.426-.78 0-1.306.445-.524.444-.722 1.356l-1.881-.233q.08-1.306 1.112-2.217 1.032-.912 2.71-.912 1.764 0 2.806.922 1.044.922 1.043 2.148 0 .678-.382 1.283-.383.607-1.638 1.648-.648.54-.805.868t-.142 1.175"/></svg>