<svg xmlns="http://www.w3.org/2000/svg" xml:space="preserve" style="fill-rule:evenodd;clip-rule:evenodd;stroke-linejoin:round;stroke-miterlimit:2" viewBox="0 0 24 24"><path d="M12.67 14.752h-.793a5.564 5.564 0 1 1 0-5.504h8.168c.144 0 .281.062.376.17l1.975 2.252a.5.5 0 0 1 0 .66l-1.975 2.252a.5.5 0 0 1-.376.17h-.565a.5.5 0 0 1-.397-.196l-.568-.743-.568.743a.5.5 0 0 1-.397.196h-.51a.5.5 0 0 1-.397-.196l-.568-.743-.568.743a.5.5 0 0 1-.397.196h-.51a.5.5 0 0 1-.397-.196l-.568-.743-.567.743a.5.5 0 0 1-.398.196m-.247-1 .815-1.066a.5.5 0 0 1 .794 0l.815 1.066h.016l.815-1.066a.5.5 0 0 1 .794 0l.815 1.066h.016l.814-1.066a.5.5 0 0 1 .795 0l.815 1.066h.092L21.356 12l-1.537-1.752h-8.242a.5.5 0 0 1-.448-.277 4.57 4.57 0 0 0-4.087-2.534A4.565 4.565 0 0 0 2.48 12a4.565 4.565 0 0 0 4.563 4.563c1.79 0 3.34-1.033 4.087-2.533a.5.5 0 0 1 .448-.278zM4.87 10.255a1.746 1.746 0 1 1-.002 3.492 1.746 1.746 0 0 1 .002-3.492m0 1a.746.746 0 0 0 0 1.49.745.745 0 0 0 0-1.49"/></svg>