<svg xmlns="http://www.w3.org/2000/svg" xml:space="preserve" style="fill-rule:evenodd;clip-rule:evenodd;stroke-linejoin:round;stroke-miterlimit:2" viewBox="0 0 24 24"><path d="M12.79 15.114h-.502a6.02 6.02 0 0 1-5.087 2.8c-3.326 0-6.028-2.706-6.028-6.043S3.875 5.827 7.2 5.827a6.02 6.02 0 0 1 5.087 2.8h7.827c.289 0 .563.124.753.342l1.963 2.244c.329.376.329.939 0 1.316l-1.963 2.244a1 1 0 0 1-.753.341h-.561a1 1 0 0 1-.796-.393l-.227-.3-.326.363a.997.997 0 0 1-1.441.047l-.53-.518-.396.457a1 1 0 0 1-1.442.072l-.525-.495-.284.374a1 1 0 0 1-.796.393m7.079-2.236.88-1.007-1.088-1.244h-7.956c-.38 0-.727-.215-.896-.555a4.03 4.03 0 0 0-3.608-2.245 4.04 4.04 0 0 0-4.028 4.044A4.04 4.04 0 0 0 7.2 15.915a4.03 4.03 0 0 0 3.608-2.245 1 1 0 0 1 .896-.555h.59l.659-.864a1 1 0 0 1 1.482-.121l.574.541.407-.47a1 1 0 0 1 1.454-.06l.545.532.437-.486a1 1 0 0 1 1.538.064zM5.553 10.12a1.75 1.75 0 1 1-.002 3.501 1.75 1.75 0 0 1 .002-3.501"/></svg>