<svg xmlns="http://www.w3.org/2000/svg" xml:space="preserve" style="fill-rule:evenodd;clip-rule:evenodd;stroke-linejoin:round;stroke-miterlimit:2" viewBox="0 0 24 24"><path d="M12 7.3a4.704 4.704 0 0 1 4.705 4.7 4.704 4.704 0 0 1-9.41 0c0-2.594 2.108-4.7 4.705-4.7m0 1A3.704 3.704 0 0 0 8.296 12a3.704 3.704 0 0 0 7.409 0c0-2.042-1.66-3.7-3.705-3.7m.5 13.4a.5.5 0 0 1-1 0v-3.637a.5.5 0 0 1 1 0zm0-15.763a.5.5 0 1 1-1 0V2.3a.5.5 0 0 1 1 0zm5.535 6.563a.5.5 0 0 1 0-1H21.7a.5.5 0 0 1 0 1zM2.3 12.5a.5.5 0 0 1 0-1h3.665a.5.5 0 0 1 0 1zm3.531 6.328a.5.5 0 0 1-.705-.71l2.203-2.186a.5.5 0 0 1 .704.71zm10.84-10.76a.5.5 0 0 1-.705-.71l2.203-2.186a.5.5 0 0 1 .705.71zm2.152 10a.5.5 0 1 1-.705.71l-2.203-2.187a.5.5 0 0 1 .705-.71zM8.085 7.409a.5.5 0 0 1-.705.71L5.178 5.932a.499.499 0 1 1 .704-.71z"/></svg>