<svg xmlns="http://www.w3.org/2000/svg" xml:space="preserve" style="fill-rule:evenodd;clip-rule:evenodd;stroke-linejoin:round;stroke-miterlimit:2" viewBox="0 0 24 24"><path d="M16.972 19.018H3.086a.5.5 0 0 1-.5-.5v-2.167a.5.5 0 0 1 .5-.5h11.718c.133 0 .26.052.353.146l2.169 2.168a.5.5 0 0 1-.354.853m-1.207-1-1.168-1.167H3.586v1.168zm-3.26-4.434H3.085a.5.5 0 0 1-.5-.5v-2.168a.5.5 0 0 1 .5-.5h9.418a.5.5 0 0 1 .5.5v2.168a.5.5 0 0 1-.5.5m-.501-1v-1.168H3.586v1.168zm2.734-4.435H3.086a.5.5 0 0 1-.5-.5V5.482a.5.5 0 0 1 .5-.5h13.82a.5.5 0 0 1 .353.853l-2.168 2.168a.5.5 0 0 1-.353.146m-.207-1L15.7 5.981H3.586V7.15zm-.136 4.554 4.633-4.633a.5.5 0 0 1 .707 0l1.533 1.533a.5.5 0 0 1 0 .707l-2.746 2.746 2.746 2.747a.5.5 0 0 1 0 .707l-1.533 1.533a.5.5 0 0 1-.707 0l-4.633-4.633a.5.5 0 0 1 0-.707m1.061.353 3.925 3.926.826-.826-2.746-2.746a.5.5 0 0 1 0-.707l2.746-2.746-.826-.826z"/></svg>