<svg xmlns="http://www.w3.org/2000/svg" xml:space="preserve" style="fill-rule:evenodd;clip-rule:evenodd;stroke-linejoin:round;stroke-miterlimit:2" viewBox="0 0 24 24"><path d="M21.414 5.482v2.167a.5.5 0 0 1-.5.5H3.086a.5.5 0 0 1-.5-.5V5.482a.5.5 0 0 1 .5-.5h17.828a.5.5 0 0 1 .5.5m-1 .5H3.585v1.167h16.827zm1 10.369v2.168a.5.5 0 0 1-.5.5H3.086a.5.5 0 0 1-.5-.5V16.35a.5.5 0 0 1 .5-.5h17.828a.5.5 0 0 1 .5.5m-1 .5H3.586v1.168h16.828zm1-5.935v2.168a.5.5 0 0 1-.5.5H3.086a.5.5 0 0 1-.5-.5v-2.168a.5.5 0 0 1 .5-.5h17.828a.5.5 0 0 1 .5.5m-1 .5H3.585v1.168h16.827z"/></svg>