<svg xmlns="http://www.w3.org/2000/svg" xml:space="preserve" style="fill-rule:evenodd;clip-rule:evenodd;stroke-linejoin:round;stroke-miterlimit:2" viewBox="0 0 24 24"><path d="m7.182 17.11-5.698.207s3.352-4.38 3.352-4.378a7 7 0 0 1-.068-.94c0-3.96 3.702-7.262 8.342-7.262S21.443 8.038 21.443 12s-3.693 7.263-8.333 7.263c-2.329 0-4.427-.831-5.928-2.153m1.083-1.726c1.168 1.158 2.908 1.879 4.845 1.879 3.454 0 6.328-2.311 6.328-5.263s-2.874-5.263-6.328-5.263c-3.463 0-6.338 2.312-6.338 5.263 0 .332.034.658.111.973l.103.456-1.331 1.736 2.303-.083z"/></svg>