<svg xmlns="http://www.w3.org/2000/svg" xml:space="preserve" style="fill-rule:evenodd;clip-rule:evenodd;stroke-linejoin:round;stroke-miterlimit:2" viewBox="0 0 24 24"><path d="m5.416 17.175-3.932.142s3.352-4.38 3.352-4.378a7 7 0 0 1-.068-.94c0-3.96 3.702-7.262 8.342-7.262 1.407 0 2.738.307 3.898.846l2.285-2.286 1.416 1.414-1.953 1.954C20.411 8 21.443 9.908 21.443 12c0 3.962-3.693 7.263-8.333 7.263-2.022 0-3.864-.625-5.297-1.654l-3.096 3.094L3.3 19.288zM15.472 7.117a7.5 7.5 0 0 0-2.362-.38c-3.463 0-6.338 2.312-6.338 5.263 0 .332.034.658.111.973l.103.456-1.331 1.736 1.834-.067zM9.246 16.17c1.075.689 2.414 1.093 3.864 1.093 3.454 0 6.328-2.311 6.328-5.263 0-1.572-.81-2.963-2.098-3.918z"/></svg>