<svg xmlns="http://www.w3.org/2000/svg" xml:space="preserve" style="fill-rule:evenodd;clip-rule:evenodd;stroke-linejoin:round;stroke-miterlimit:2" viewBox="0 0 24 24"><path d="m17.689 15.686-2.007 2.007a.583.583 0 0 1-.825-.003l-7.67-7.67a.58.58 0 0 1 0-.821l2.008-2.007a.58.58 0 0 1 .821 0l7.67 7.669c.229.23.23.598.003.825M8.58 6.376 6.372 8.584a.437.437 0 0 1-.618.003L4.238 7.072a.44.44 0 0 1 0-.622l2.208-2.208a.44.44 0 0 1 .621 0l1.516 1.516a.437.437 0 0 1-.003.618m7.797 12.045 2.047-2.047a.556.556 0 0 1 .788-.002l.54.54a.47.47 0 0 1 .14.334v2.176a.47.47 0 0 1-.467.466H17.25a.47.47 0 0 1-.333-.139l-.54-.54a.556.556 0 0 1 .001-.788"/></svg>