<svg xmlns="http://www.w3.org/2000/svg" xml:space="preserve" style="fill-rule:evenodd;clip-rule:evenodd;stroke-linejoin:round;stroke-miterlimit:2" viewBox="0 0 24 24"><path d="m7.316 4.12 2.345 2.345a.703.703 0 0 1 0 .993l-.993.993a.7.7 0 0 0 0 .993l5.888 5.888c.274.275.72.275.993 0l.993-.993a.703.703 0 0 1 .994 0l2.344 2.345a.936.936 0 0 1 0 1.324l-1.324 1.324a2.81 2.81 0 0 1-3.973.001L4.668 9.417a2.81 2.81 0 0 1 0-3.973L5.992 4.12a.937.937 0 0 1 1.324 0m11.66 2.405-2.373 2.372 2.46-.073a1.061 1.061 0 0 1 .062 2.12l-5.128.151h-.063a1.06 1.06 0 0 1-1.029-1.092l.151-5.128a1.061 1.061 0 0 1 2.12.063l-.072 2.46 2.372-2.373a1.06 1.06 0 0 1 1.5 1.5"/></svg>