<svg xmlns="http://www.w3.org/2000/svg" xml:space="preserve" style="fill-rule:evenodd;clip-rule:evenodd;stroke-linejoin:round;stroke-miterlimit:2" viewBox="0 0 24 24"><path d="M20.884 10.09h-3.316a.703.703 0 0 1-.703-.703V7.983a.7.7 0 0 0-.702-.703H7.836a.703.703 0 0 0-.702.703v1.404a.703.703 0 0 1-.703.703H3.115a.936.936 0 0 1-.936-.937V7.28a2.81 2.81 0 0 1 2.809-2.81h14.023a2.81 2.81 0 0 1 2.81 2.81v1.873c0 .517-.42.937-.937.937M4.75 13.593l3.546-4.18a.74.74 0 0 1 .568-.263h.13v-.5a.53.53 0 0 1 .529-.53h1.519a.53.53 0 0 1 .53.53v.5h.853v-.5a.53.53 0 0 1 .53-.53h1.519a.53.53 0 0 1 .53.53v.5h.13c.218 0 .425.096.567.263l3.546 4.18a.74.74 0 0 1 .176.481v4.71c0 .411-.332.745-.744.745H5.318a.744.744 0 0 1-.744-.745v-4.71c0-.176.063-.347.177-.48m9.747-2.508H9.501l-2.927 3.45v2.994h10.85v-2.993zM12 12.15a2.262 2.262 0 0 1 0 4.522 2.262 2.262 0 0 1 0-4.522"/></svg>