<svg xmlns="http://www.w3.org/2000/svg" xml:space="preserve" style="fill-rule:evenodd;clip-rule:evenodd;stroke-linejoin:round;stroke-miterlimit:2" viewBox="0 0 24 24"><path d="m7.316 4.12 2.345 2.345a.703.703 0 0 1 0 .993l-.993.993a.7.7 0 0 0 0 .993l5.888 5.888c.274.275.72.275.993 0l.993-.993a.703.703 0 0 1 .994 0l2.344 2.345a.936.936 0 0 1 0 1.324l-1.324 1.324a2.81 2.81 0 0 1-3.973.001L4.668 9.417a2.81 2.81 0 0 1 0-3.973L5.992 4.12a.937.937 0 0 1 1.324 0M15.285 7.3l-1.749-1.748a1 1 0 0 1 1.414-1.414l1.749 1.748 1.748-1.748a1 1 0 0 1 1.414 1.414L18.113 7.3l1.749 1.75a1.001 1.001 0 0 1-1.414 1.414l-1.75-1.75-1.749 1.75a1 1 0 0 1-1.414-1.414z"/></svg>