<svg xmlns="http://www.w3.org/2000/svg" xml:space="preserve" style="fill-rule:evenodd;clip-rule:evenodd;stroke-linejoin:round;stroke-miterlimit:2" viewBox="0 0 24 24"><path d="M9.276 14.026 4.668 9.417a2.81 2.81 0 0 1 0-3.973L5.992 4.12a.937.937 0 0 1 1.324 0l2.345 2.345a.703.703 0 0 1 0 .993l-.993.993a.7.7 0 0 0 0 .993l2.595 2.595 6.72-6.72 1.414 1.415-6.72 6.72 1.879 1.878c.274.275.72.275.993 0l.993-.993a.703.703 0 0 1 .994 0l2.344 2.345a.936.936 0 0 1 0 1.324l-1.324 1.324a2.81 2.81 0 0 1-3.973.001l-3.892-3.893-4.673 4.673L4.603 18.7z"/></svg>