<svg xmlns="http://www.w3.org/2000/svg" xml:space="preserve" style="fill-rule:evenodd;clip-rule:evenodd;stroke-linejoin:round;stroke-miterlimit:2" viewBox="0 0 24 24"><path d="m7.316 4.12 2.345 2.345a.703.703 0 0 1 0 .993l-.993.993a.7.7 0 0 0 0 .993l5.888 5.888c.274.275.72.275.993 0l.993-.993a.703.703 0 0 1 .994 0l2.344 2.345a.936.936 0 0 1 0 1.324l-1.324 1.324a2.81 2.81 0 0 1-3.973.001L4.668 9.417a2.81 2.81 0 0 1 0-3.973L5.992 4.12a.937.937 0 0 1 1.324 0m6.768 4.297 2.372-2.372-2.46.072a1.061 1.061 0 0 1-.062-2.12l5.128-.15h.063c.56.015 1.013.467 1.03 1.028v.063l-.152 5.128a1.06 1.06 0 0 1-2.12-.062l.073-2.46-2.372 2.373a1.061 1.061 0 0 1-1.5-1.5"/></svg>