<svg xmlns="http://www.w3.org/2000/svg" xml:space="preserve" style="fill-rule:evenodd;clip-rule:evenodd;stroke-linejoin:round;stroke-miterlimit:2" viewBox="0 0 24 24"><path d="m7.366 13.613-3.378-3.378 6.267-6.266 3.378 3.377 2.19-2.19 1.414 1.415-2.19 2.19.387.386 3.225.428 1.22 1.22-3.825 3.825 3.854 3.854a1 1 0 0 1-1.414 1.414l-3.854-3.853-3.825 3.825-1.22-1.22-.428-3.226-.387-.387-2.19 2.19-1.414-1.414zM12.22 8.76l-1.964-1.963-3.439 3.438L8.78 12.2zm-2.025 4.853.387.387c.31.31.51.715.569 1.15l.18 1.366 5.206-5.206-1.366-.18a2 2 0 0 1-1.15-.569l-.387-.387z"/></svg>