<svg xmlns="http://www.w3.org/2000/svg" xml:space="preserve" style="fill-rule:evenodd;clip-rule:evenodd;stroke-linejoin:round;stroke-miterlimit:2" viewBox="0 0 24 24"><path d="m8.513 14.78-4.459-4.459 6.267-6.266 4.459 4.459 3.852-3.853.707.707-3.852 3.853.013.012 3.225.428 1.22 1.22-4.178 4.18 3.853 3.853a.5.5 0 0 1-.707.707l-3.854-3.854-4.178 4.179-1.22-1.22-.428-3.226-.013-.013-3.852 3.853-.707-.707zm5.56-5.56L10.32 5.47 5.468 10.32l3.752 3.752zm-4.146 5.56.013.013c.154.155.255.357.284.576l.383 2.889.274.273 7.65-7.65-.274-.273-2.889-.384a1 1 0 0 1-.576-.283l-.012-.013z"/></svg>