<svg xmlns="http://www.w3.org/2000/svg" xml:space="preserve" style="fill-rule:evenodd;clip-rule:evenodd;stroke-linejoin:round;stroke-miterlimit:2" viewBox="0 0 24 24"><path d="M22.1 6.95v10.1a5.053 5.053 0 0 1-5.05 5.05H6.95a5.05 5.05 0 0 1-5.05-5.05V6.95A5.053 5.053 0 0 1 6.95 1.9h10.1a5.05 5.05 0 0 1 5.05 5.05m-2 0a3.053 3.053 0 0 0-3.05-3.05H6.95A3.05 3.05 0 0 0 3.9 6.95v10.1a3.05 3.05 0 0 0 3.05 3.05h10.1a3.053 3.053 0 0 0 3.05-3.05zm-9.6 6.55H6.934a1.5 1.5 0 0 1 0-3H10.5V6.932a1.5 1.5 0 0 1 3 0V10.5h3.567a1.5 1.5 0 0 1 0 3H13.5v3.566a1.5 1.5 0 1 1-3 0z"/></svg>