<svg xmlns="http://www.w3.org/2000/svg" xml:space="preserve" style="fill-rule:evenodd;clip-rule:evenodd;stroke-linejoin:round;stroke-miterlimit:2" viewBox="0 0 24 24"><path d="M12.562 14.968a6.085 6.085 0 0 1-7.222-1.032 6.08 6.08 0 0 1 0-8.595 6.08 6.08 0 0 1 8.596 0 6.085 6.085 0 0 1 1.032 7.221l4.116 4.116c.43.43.43 1.128 0 1.557l-.85.85c-.429.429-1.126.429-1.556 0zm.433-.981 4.39 4.39a.1.1 0 0 0 .143 0l.849-.849a.1.1 0 0 0 0-.142l-4.39-4.39a.5.5 0 0 1-.069-.624 5.08 5.08 0 0 0-.69-6.324 5.08 5.08 0 0 0-7.18 0 5.08 5.08 0 0 0 0 7.181 5.08 5.08 0 0 0 6.324.69.5.5 0 0 1 .623.068m-.616-7.089a3.877 3.877 0 0 1 0 5.481 3.877 3.877 0 0 1-5.481 0 3.877 3.877 0 0 1 0-5.48 3.877 3.877 0 0 1 5.48 0m-.708.707a2.877 2.877 0 1 0 0 4.067 2.877 2.877 0 0 0 0-4.067"/></svg>