<svg xmlns="http://www.w3.org/2000/svg" xml:space="preserve" style="fill-rule:evenodd;clip-rule:evenodd;stroke-linejoin:round;stroke-miterlimit:2" viewBox="0 0 24 24"><path d="M21.632 7.423v2.84a1.42 1.42 0 0 1-1.42 1.419H3.786a1.42 1.42 0 0 1-1.42-1.419v-2.84a1.42 1.42 0 0 1 1.42-1.419h16.426c.784 0 1.42.636 1.42 1.42m-1 0a.42.42 0 0 0-.42-.42H3.786a.42.42 0 0 0-.419.42v2.84c0 .232.188.42.42.42h16.425a.42.42 0 0 0 .42-.42zm-7.733 1.142v.556a.28.28 0 0 1-.278.278h-6.09a.28.28 0 0 1-.278-.278v-.556c0-.153.125-.277.278-.277h6.09c.154 0 .278.124.278.277m7.146 0v.556a.28.28 0 0 1-.279.278h-6.09a.28.28 0 0 1-.277-.278v-.556c0-.153.124-.277.278-.277h6.09c.153 0 .278.124.278.277M4.854 7.943a.9.9 0 1 1-.001 1.801.9.9 0 0 1 0-1.8m16.778 5.793v2.84a1.42 1.42 0 0 1-1.42 1.42H3.786a1.42 1.42 0 0 1-1.42-1.42v-2.84c0-.782.637-1.42 1.42-1.42h16.426c.784 0 1.42.638 1.42 1.42m-1 0a.42.42 0 0 0-.42-.419H3.786a.42.42 0 0 0-.419.42v2.838c0 .232.188.42.42.42h16.425a.42.42 0 0 0 .42-.42zm-7.733 1.143v.555a.28.28 0 0 1-.278.278h-6.09a.28.28 0 0 1-.278-.278v-.555c0-.154.125-.28.278-.28h6.09c.154 0 .278.126.278.28m-8.045-.622a.9.9 0 1 1-.001 1.8.9.9 0 0 1 0-1.8m15.19.622v.555a.28.28 0 0 1-.278.278h-6.09a.28.28 0 0 1-.277-.278v-.555c0-.154.124-.28.278-.28h6.09c.153 0 .278.126.278.28"/></svg>