<svg xmlns="http://www.w3.org/2000/svg" xml:space="preserve" style="fill-rule:evenodd;clip-rule:evenodd;stroke-linejoin:round;stroke-miterlimit:2" viewBox="0 0 24 24"><path d="M21.837 4.913V9.31a2.2 2.2 0 0 1-2.199 2.198H4.358A2.2 2.2 0 0 1 2.16 9.31V4.913a2.2 2.2 0 0 1 2.2-2.198h15.28a2.2 2.2 0 0 1 2.198 2.198m-2 0c0-.11-.089-.199-.199-.199H4.358c-.11 0-.199.089-.199.199V9.31c0 .11.09.199.2.199h15.28c.11 0 .198-.089.198-.199zm-.864 1.7v.999a.5.5 0 0 1-.5.5h-8.1a.5.5 0 0 1-.5-.5v-1a.5.5 0 0 1 .5-.5h8.1a.5.5 0 0 1 .5.5M6.837 5.468a1.643 1.643 0 1 1 0 3.287 1.643 1.643 0 0 1 0-3.287m15 9.22v4.396a2.2 2.2 0 0 1-2.199 2.2H4.358a2.2 2.2 0 0 1-2.199-2.2V14.69a2.2 2.2 0 0 1 2.2-2.2h15.28a2.2 2.2 0 0 1 2.198 2.2m-2 0c0-.11-.089-.199-.199-.199H4.358c-.11 0-.199.089-.199.199v4.396c0 .11.09.2.2.2h15.28a.2.2 0 0 0 .198-.2zm-.864 1.7v.999a.5.5 0 0 1-.5.5h-8.1a.5.5 0 0 1-.5-.5v-1c0-.276.224-.502.5-.502h8.1c.277 0 .5.226.5.502M6.837 15.244a1.643 1.643 0 1 1 0 3.287 1.643 1.643 0 0 1 0-3.287"/></svg>