<svg xmlns="http://www.w3.org/2000/svg" xml:space="preserve" style="fill-rule:evenodd;clip-rule:evenodd;stroke-linejoin:round;stroke-miterlimit:2" viewBox="0 0 24 24"><path d="m7.664 9.865.868-.522a1.5 1.5 0 0 1 1.546 2.571l-3.62 2.178a1.5 1.5 0 0 1-2.059-.512L2.221 9.959a1.5 1.5 0 0 1 2.57-1.547l.135.223A7.84 7.84 0 0 1 12 4.167 7.836 7.836 0 0 1 19.833 12 7.836 7.836 0 0 1 12 19.832a7.82 7.82 0 0 1-5.971-2.765 1.5 1.5 0 0 1 2.286-1.943A4.82 4.82 0 0 0 12 16.832 4.835 4.835 0 0 0 16.832 12 4.835 4.835 0 0 0 12 7.167c-1.9 0-3.547 1.1-4.336 2.698"/></svg>