<svg xmlns="http://www.w3.org/2000/svg" xml:space="preserve" style="fill-rule:evenodd;clip-rule:evenodd;stroke-linejoin:round;stroke-miterlimit:2" viewBox="0 0 24 24"><path d="M11.05 4.141a1 1 0 0 1 1.901 0l1.65 5.077h5.338a1.001 1.001 0 0 1 .588 1.81l-4.319 3.137 1.65 5.077a1 1 0 0 1-1.539 1.118L12 17.222 7.682 20.36a1 1 0 0 1-1.54-1.118l1.65-5.077-4.318-3.138a1 1 0 0 1 .588-1.81H9.4zm-3.911 7.077 3.005 2.183-1.148 3.531L12 14.75l3.005 2.182-1.148-3.531 3.004-2.183h-3.713L12 7.686l-1.147 3.532z"/></svg>