<svg xmlns="http://www.w3.org/2000/svg" xml:space="preserve" style="fill-rule:evenodd;clip-rule:evenodd;stroke-linejoin:round;stroke-miterlimit:2" viewBox="0 0 24 24"><path d="M18.414 8.396a8.1 8.1 0 0 1 1.72 5A8.14 8.14 0 0 1 12 21.53a8.14 8.14 0 0 1-8.134-8.134A8.14 8.14 0 0 1 12 5.262c1.885 0 3.62.643 5 1.72l1.42-1.42a1 1 0 0 1 1.414 1.415zm-2.165.578a6.1 6.1 0 0 0-4.25-1.711 6.137 6.137 0 0 0-6.133 6.133A6.137 6.137 0 0 0 12 19.53a6.137 6.137 0 0 0 6.134-6.134 6.12 6.12 0 0 0-1.711-4.249 1 1 0 0 1-.174-.173M13 13.396a1 1 0 0 1-2 0V9.107a1 1 0 0 1 2 0zM14.392 2.43a1 1 0 0 1 0 2H9.608a1 1 0 0 1 0-2z"/></svg>