<svg xmlns="http://www.w3.org/2000/svg" xml:space="preserve" style="fill-rule:evenodd;clip-rule:evenodd;stroke-linejoin:round;stroke-miterlimit:2" viewBox="0 0 24 24"><path d="M14.52 4.738h1.2c.875 0 1.61.598 1.821 1.407l-1.94 2.918V6.737H6.012v13.7h9.59v-2.344l2-3.007v5.468c0 1.04-.844 1.883-1.883 1.883H5.894a1.883 1.883 0 0 1-1.881-1.883V6.62c0-1.04.843-1.882 1.881-1.882h1.2v-.99c0-.419.34-.758.76-.758h1.06c0-.788.848-1.427 1.893-1.427S12.7 2.202 12.7 2.99h1.061c.419 0 .759.34.759.758zM8.677 12.48a1.5 1.5 0 0 1 2.214-2.024l2.886 3.158 4.962-7.463a1.5 1.5 0 0 1 2.498 1.66l-6.024 9.062a1.5 1.5 0 0 1-2.357.18z"/></svg>