<svg xmlns="http://www.w3.org/2000/svg" xml:space="preserve" style="fill-rule:evenodd;clip-rule:evenodd;stroke-linejoin:round;stroke-miterlimit:2" viewBox="0 0 24 24"><path d="M5.712 6.563h-.903a1 1 0 1 1 0-2h4.433a1.5 1.5 0 0 1 1.495-1.384h2.521c.789 0 1.437.611 1.496 1.384h4.432a1 1 0 1 1 0 2h-.902v11.964a2.003 2.003 0 0 1-2 2H7.713a2 2 0 0 1-2.001-2zm10.572 0H7.713v11.964h8.571zm-5.7 5.982-1.749-1.749a1 1 0 0 1 1.414-1.414l1.75 1.749 1.748-1.75a1 1 0 0 1 1.414 1.415l-1.749 1.749 1.749 1.749a.999.999 0 1 1-1.414 1.414l-1.749-1.749-1.75 1.749a1 1 0 0 1-1.413-1.414z"/></svg>