<svg xmlns="http://www.w3.org/2000/svg" xml:space="preserve" style="fill-rule:evenodd;clip-rule:evenodd;stroke-linejoin:round;stroke-miterlimit:2" viewBox="0 0 24 24"><path d="M22.112 12 12 22.112 1.89 12 12 1.888zm-2.828 0L12 4.717 4.717 12 12 19.283zm-6.35 2.173-1.615-.017c.015-1.421.768-2.45 1.608-3.053.5-.358.73-1.05.473-1.554-.172-.336-.575-.521-1.192-.521-.902 0-1.628.71-1.715 1.328l-1.6-.224c.171-1.224 1.53-2.72 3.315-2.72 1.415-.001 2.237.63 2.632 1.402.59 1.158.178 2.78-.972 3.603-.484.347-.925.937-.933 1.756m-.002.8v1.615h-1.616v-1.616z"/></svg>