<svg xmlns="http://www.w3.org/2000/svg" xml:space="preserve" style="fill-rule:evenodd;clip-rule:evenodd;stroke-linejoin:round;stroke-miterlimit:2" viewBox="0 0 24 24"><path d="M16.892 11.71a9.9 9.9 0 0 1 4.713 6.28A13.21 13.21 0 0 1 12 22.116c-3.778 0-7.19-1.585-9.604-4.126a9.9 9.9 0 0 1 4.713-6.28 6.6 6.6 0 0 0 4.89 2.159c1.938 0 3.68-.832 4.893-2.159m.135 1.266A7.6 7.6 0 0 1 12 14.869a7.6 7.6 0 0 1-5.027-1.893 8.9 8.9 0 0 0-3.461 4.719A12.2 12.2 0 0 0 12 21.116c3.294 0 6.286-1.303 8.489-3.422a8.9 8.9 0 0 0-3.462-4.718m-8.721-1.847a5.35 5.35 0 0 1-1.667-3.884 5.363 5.363 0 0 1 5.36-5.361 5.363 5.363 0 0 1 5.362 5.361c0 1.528-.64 2.907-1.667 3.884A5.34 5.34 0 0 1 12 12.606a5.34 5.34 0 0 1-3.694-1.477m.69-.725A4.34 4.34 0 0 0 12 11.606a4.34 4.34 0 0 0 3.005-1.202 4.35 4.35 0 0 0 1.356-3.159A4.363 4.363 0 0 0 12 2.884a4.363 4.363 0 0 0-4.361 4.361c0 1.243.52 2.365 1.357 3.159"/></svg>