<svg xmlns="http://www.w3.org/2000/svg" xml:space="preserve" style="fill-rule:evenodd;clip-rule:evenodd;stroke-linejoin:round;stroke-miterlimit:2" viewBox="0 0 24 24"><path d="M12 1.9c5.574 0 10.1 4.526 10.1 10.1S17.574 22.1 12 22.1 1.9 17.574 1.9 12 6.426 1.9 12 1.9m0 1c-5.022 0-9.1 4.078-9.1 9.1 0 5.023 4.078 9.1 9.1 9.1s9.1-4.077 9.1-9.1-4.078-9.1-9.1-9.1m-2.923 7.764A3.476 3.476 0 0 1 12 5.312a3.476 3.476 0 0 1 2.924 5.352A3.49 3.49 0 0 1 12 12.26a3.46 3.46 0 0 1-2.923-1.596m.841-.541q.162.251.377.456A2.47 2.47 0 0 0 12 11.26a2.46 2.46 0 0 0 2.082-1.138A2.475 2.475 0 0 0 12 6.313a2.475 2.475 0 0 0-2.082 3.81m5.252 1.557a6.42 6.42 0 0 1 3.054 4.07A8.56 8.56 0 0 1 12 18.422a8.56 8.56 0 0 1-6.224-2.674 6.42 6.42 0 0 1 3.054-4.07c.785.86 1.915 1.4 3.17 1.4s2.385-.54 3.17-1.4m.102 1.265A5.27 5.27 0 0 1 12 14.08a5.27 5.27 0 0 1-3.272-1.133 5.4 5.4 0 0 0-1.824 2.508A7.56 7.56 0 0 0 12 17.424c1.96 0 3.749-.747 5.096-1.97a5.4 5.4 0 0 0-1.824-2.509"/></svg>