<svg xmlns="http://www.w3.org/2000/svg" xml:space="preserve" style="fill-rule:evenodd;clip-rule:evenodd;stroke-linejoin:round;stroke-miterlimit:2" viewBox="0 0 24 24"><path d="M12 1.9c5.574 0 10.1 4.526 10.1 10.1 0 5.575-4.526 10.1-10.1 10.1S1.9 17.575 1.9 12 6.426 1.9 12 1.9m0 2c-4.47 0-8.1 3.63-8.1 8.1s3.63 8.1 8.1 8.1 8.1-3.63 8.1-8.1-3.63-8.1-8.1-8.1m3.188 8.203a6.45 6.45 0 0 1 3.072 4.093 8.61 8.61 0 0 1-6.26 2.69 8.6 8.6 0 0 1-6.26-2.69 6.45 6.45 0 0 1 3.072-4.093A4.3 4.3 0 0 0 12 13.51a4.3 4.3 0 0 0 3.188-1.407m.022 2.531a6.3 6.3 0 0 1-3.21.876c-1.172 0-2.27-.319-3.21-.876-.277.29-.514.617-.704.972A6.6 6.6 0 0 0 12 16.886a6.6 6.6 0 0 0 3.914-1.28 4.5 4.5 0 0 0-.704-.972M9.592 11.14A3.496 3.496 0 0 1 12 5.114a3.496 3.496 0 0 1 1.502 6.65 3.5 3.5 0 0 1-1.502.339c-.933 0-1.78-.366-2.408-.963m1.38-1.449a1.49 1.49 0 0 0 2.057 0 1.495 1.495 0 1 0-2.058 0"/></svg>