<svg xmlns="http://www.w3.org/2000/svg" xml:space="preserve" style="fill-rule:evenodd;clip-rule:evenodd;stroke-linejoin:round;stroke-miterlimit:2" viewBox="0 0 24 24"><path d="M16.677 12.15a9.47 9.47 0 0 1 4.506 6.005A12.63 12.63 0 0 1 12 22.1a12.63 12.63 0 0 1-9.182-3.945 9.47 9.47 0 0 1 4.506-6.004A6.31 6.31 0 0 0 12 14.215a6.32 6.32 0 0 0 4.677-2.064m.14 2.533A8.3 8.3 0 0 1 12 16.215a8.3 8.3 0 0 1-4.816-1.532 7.46 7.46 0 0 0-2.083 2.882A10.62 10.62 0 0 0 12 20.1c2.63 0 5.04-.954 6.9-2.536a7.46 7.46 0 0 0-2.084-2.881m-8.349-3.944a5.11 5.11 0 0 1-1.594-3.714A5.13 5.13 0 0 1 12 1.9a5.13 5.13 0 0 1 5.125 5.125 5.1 5.1 0 0 1-1.594 3.714A5.092 5.092 0 0 1 12 12.15a5.1 5.1 0 0 1-3.531-1.412M9.847 9.29c.56.534 1.319.86 2.153.86a3.12 3.12 0 0 0 2.153-.86c.6-.57.973-1.373.973-2.265 0-1.724-1.4-3.125-3.126-3.125a3.127 3.127 0 0 0-2.153 5.39"/></svg>