<svg xmlns="http://www.w3.org/2000/svg" xml:space="preserve" style="fill-rule:evenodd;clip-rule:evenodd;stroke-linejoin:round;stroke-miterlimit:2" viewBox="0 0 24 24"><path d="M4.508 19.639a4.13 4.13 0 0 1-3.374-4.057v-8.25A4.125 4.125 0 0 1 5.258 3.21h13.486a4.126 4.126 0 0 1 4.125 4.124v8.25a4.13 4.13 0 0 1-3.375 4.056v.61c0 .3-.243.543-.543.543h-2.51a.543.543 0 0 1-.542-.542v-.543H8.103v.543a.54.54 0 0 1-.541.542H5.05a.543.543 0 0 1-.542-.542zm-1.336-3.653a2.126 2.126 0 0 0 2.086 1.72h13.486a2.126 2.126 0 0 0 2.125-2.124v-8.25a2.126 2.126 0 0 0-2.125-2.124H5.258A2.126 2.126 0 0 0 3.172 6.93h.622c.394 0 .714.32.714.713v2.129c0 .393-.32.713-.714.713h-.66v1.947h.66c.394 0 .714.32.714.714v2.128c0 .393-.32.713-.714.713zm6.907-6.928L8.975 7.966a.55.55 0 0 1 0-.783l.792-.784a.566.566 0 0 1 .793 0l1.09 1.078a4.7 4.7 0 0 1 2.44-.683c.932 0 1.799.27 2.526.736l1.11-1.097a.515.515 0 0 1 .723 0l.724.715a.5.5 0 0 1 0 .715l-1.122 1.11a4.55 4.55 0 0 1 .699 2.426 4.53 4.53 0 0 1-.692 2.413l1.15 1.137c.22.217.22.568 0 .783l-.793.784a.564.564 0 0 1-.792 0l-1.164-1.15a4.7 4.7 0 0 1-2.368.639c-.9 0-1.74-.253-2.453-.69l-1.182 1.167a.517.517 0 0 1-.724 0l-.723-.715a.5.5 0 0 1 0-.715l1.168-1.155a4.55 4.55 0 0 1-.744-2.498c0-.854.236-1.655.646-2.34m4.012-.048c-1.334 0-2.416 1.071-2.416 2.39 0 1.318 1.082 2.388 2.416 2.388s2.417-1.07 2.417-2.389-1.083-2.39-2.418-2.39m0 1.328c.625 0 1.133.502 1.133 1.12 0 .617-.508 1.119-1.133 1.119a1.126 1.126 0 0 1-1.132-1.12c0-.617.507-1.119 1.132-1.119"/></svg>